M48
; DRILL file {KiCad (6.0.1-0)} date Tuesday, February 08, 2022 at 09:02:48 PM
; FORMAT={-:-/ absolute / inch / decimal}
; #@! TF.CreationDate,2022-02-08T21:02:48-05:00
; #@! TF.GenerationSoftware,Kicad,Pcbnew,(6.0.1-0)
; #@! TF.FileFunction,MixedPlating,1,2
FMAT,2
INCH
; #@! TA.AperFunction,Plated,PTH,ViaDrill
T1C0.0157
; #@! TA.AperFunction,Plated,PTH,ComponentDrill
T2C0.0197
; #@! TA.AperFunction,Plated,PTH,ComponentDrill
T3C0.0217
; #@! TA.AperFunction,Plated,PTH,ComponentDrill
T4C0.0295
; #@! TA.AperFunction,Plated,PTH,ComponentDrill
T5C0.0315
; #@! TA.AperFunction,NonPlated,NPTH,ComponentDrill
T6C0.0591
%
G90
G05
T1
X2.316Y-3.175
X2.341Y-2.925
X2.463Y-3.175
X2.79Y-2.981
X2.8583Y-3.1591
X3.0502Y-3.2717
X3.1201Y-3.0571
X3.37Y-3.0075
X3.6711Y-3.131
X3.716Y-3.269
T4
X2.9303Y-2.9157
X2.9803Y-2.9157
X3.0303Y-2.9157
T5
X3.1697Y-3.361
X3.3618Y-3.361
T6
X2.2724Y-3.269
X2.548Y-3.269
T2
G00X3.8371Y-2.92
M15
G01X3.8115Y-2.92
M16
G05
G00X3.8371Y-3.1956
M15
G01X3.8115Y-3.1956
M16
G05
T3
G00X3.719Y-2.9653
M15
G01X3.719Y-2.9535
M16
G05
G00X3.719Y-3.1621
M15
G01X3.719Y-3.1503
M16
G05
T0
M30
