%TF.GenerationSoftware,KiCad,Pcbnew,(6.0.1-0)*%
%TF.CreationDate,2022-02-08T21:01:33-05:00*%
%TF.ProjectId,usbAudio,75736241-7564-4696-9f2e-6b696361645f,rev?*%
%TF.SameCoordinates,Original*%
%TF.FileFunction,Paste,Top*%
%TF.FilePolarity,Positive*%
%FSLAX46Y46*%
G04 Gerber Fmt 4.6, Leading zero omitted, Abs format (unit mm)*
G04 Created by KiCad (PCBNEW (6.0.1-0)) date 2022-02-08 21:01:33*
%MOMM*%
%LPD*%
G01*
G04 APERTURE LIST*
G04 Aperture macros list*
%AMRoundRect*
0 Rectangle with rounded corners*
0 $1 Rounding radius*
0 $2 $3 $4 $5 $6 $7 $8 $9 X,Y pos of 4 corners*
0 Add a 4 corners polygon primitive as box body*
4,1,4,$2,$3,$4,$5,$6,$7,$8,$9,$2,$3,0*
0 Add four circle primitives for the rounded corners*
1,1,$1+$1,$2,$3*
1,1,$1+$1,$4,$5*
1,1,$1+$1,$6,$7*
1,1,$1+$1,$8,$9*
0 Add four rect primitives between the rounded corners*
20,1,$1+$1,$2,$3,$4,$5,0*
20,1,$1+$1,$4,$5,$6,$7,0*
20,1,$1+$1,$6,$7,$8,$9,0*
20,1,$1+$1,$8,$9,$2,$3,0*%
G04 Aperture macros list end*
%ADD10RoundRect,0.237500X-0.250000X-0.237500X0.250000X-0.237500X0.250000X0.237500X-0.250000X0.237500X0*%
%ADD11R,0.431800X1.651000*%
%ADD12RoundRect,0.150000X0.512500X0.150000X-0.512500X0.150000X-0.512500X-0.150000X0.512500X-0.150000X0*%
%ADD13RoundRect,0.237500X-0.237500X0.300000X-0.237500X-0.300000X0.237500X-0.300000X0.237500X0.300000X0*%
%ADD14RoundRect,0.237500X0.300000X0.237500X-0.300000X0.237500X-0.300000X-0.237500X0.300000X-0.237500X0*%
%ADD15RoundRect,0.237500X-0.300000X-0.237500X0.300000X-0.237500X0.300000X0.237500X-0.300000X0.237500X0*%
%ADD16RoundRect,0.237500X0.237500X-0.300000X0.237500X0.300000X-0.237500X0.300000X-0.237500X-0.300000X0*%
%ADD17RoundRect,0.250000X0.650000X-0.412500X0.650000X0.412500X-0.650000X0.412500X-0.650000X-0.412500X0*%
%ADD18R,0.711200X0.203200*%
%ADD19R,1.701800X2.387600*%
%ADD20RoundRect,0.237500X-0.237500X0.250000X-0.237500X-0.250000X0.237500X-0.250000X0.237500X0.250000X0*%
%ADD21RoundRect,0.250000X-0.650000X0.412500X-0.650000X-0.412500X0.650000X-0.412500X0.650000X0.412500X0*%
%ADD22R,1.651000X1.498600*%
%ADD23R,1.346200X0.457200*%
%ADD24R,1.500000X2.000000*%
G04 APERTURE END LIST*
D10*
%TO.C,R7*%
X60717500Y-78659400D03*
X62542500Y-78659400D03*
%TD*%
%TO.C,R8*%
X60717500Y-77110000D03*
X62542500Y-77110000D03*
%TD*%
%TO.C,R6*%
X91996900Y-77647800D03*
X90171900Y-77647800D03*
%TD*%
D11*
%TO.C,U1*%
X87518001Y-74345800D03*
X86868000Y-74345800D03*
X86218001Y-74345800D03*
X85568000Y-74345800D03*
X84918002Y-74345800D03*
X84268000Y-74345800D03*
X83618002Y-74345800D03*
X82968003Y-74345800D03*
X82318002Y-74345800D03*
X81668003Y-74345800D03*
X81018002Y-74345800D03*
X80368003Y-74345800D03*
X79718002Y-74345800D03*
X79068003Y-74345800D03*
X79068001Y-81610200D03*
X79718002Y-81610200D03*
X80368001Y-81610200D03*
X81018002Y-81610200D03*
X81668000Y-81610200D03*
X82318002Y-81610200D03*
X82968000Y-81610200D03*
X83618002Y-81610200D03*
X84268000Y-81610200D03*
X84918002Y-81610200D03*
X85568000Y-81610200D03*
X86218001Y-81610200D03*
X86868000Y-81610200D03*
X87518001Y-81610200D03*
%TD*%
D12*
%TO.C,U4*%
X71520900Y-83134200D03*
X71520900Y-82184200D03*
X71520900Y-81234200D03*
X69245900Y-81234200D03*
X69245900Y-83134200D03*
%TD*%
%TO.C,U3*%
X75917500Y-83130000D03*
X75917500Y-82180000D03*
X75917500Y-81230000D03*
X73642500Y-81230000D03*
X73642500Y-83130000D03*
%TD*%
D13*
%TO.C,C17*%
X69850000Y-86943100D03*
X69850000Y-85218100D03*
%TD*%
%TO.C,C16*%
X71424800Y-86943100D03*
X71424800Y-85218100D03*
%TD*%
%TO.C,C13*%
X72974200Y-86943100D03*
X72974200Y-85218100D03*
%TD*%
D14*
%TO.C,C6*%
X64694700Y-77532000D03*
X66419700Y-77532000D03*
%TD*%
D15*
%TO.C,C15*%
X90223000Y-87045800D03*
X91948000Y-87045800D03*
%TD*%
D10*
%TO.C,R4*%
X90145700Y-74129900D03*
X91970700Y-74129900D03*
%TD*%
%TO.C,R5*%
X90145700Y-75653900D03*
X91970700Y-75653900D03*
%TD*%
%TO.C,R9*%
X91969600Y-79325300D03*
X90144600Y-79325300D03*
%TD*%
%TO.C,R10*%
X90170000Y-85521800D03*
X91995000Y-85521800D03*
%TD*%
D15*
%TO.C,C14*%
X90223000Y-83997800D03*
X91948000Y-83997800D03*
%TD*%
D14*
%TO.C,C9*%
X91900000Y-82473800D03*
X90175000Y-82473800D03*
%TD*%
D15*
%TO.C,C12*%
X91922600Y-80900100D03*
X90197600Y-80900100D03*
%TD*%
D16*
%TO.C,C10*%
X76150000Y-86942500D03*
X76150000Y-85217500D03*
%TD*%
%TO.C,C11*%
X74600000Y-85205000D03*
X74600000Y-86930000D03*
%TD*%
D17*
%TO.C,C3*%
X74041000Y-79476600D03*
X74041000Y-76351600D03*
%TD*%
D18*
%TO.C,U2*%
X67005800Y-76082000D03*
X67005800Y-75682001D03*
X67005800Y-75281999D03*
X67005800Y-74882000D03*
X67005800Y-74482001D03*
X67005800Y-74081999D03*
X67005800Y-73682000D03*
X64008600Y-73682000D03*
X64008600Y-74081999D03*
X64008600Y-74482001D03*
X64008600Y-74882000D03*
X64008600Y-75281999D03*
X64008600Y-75682001D03*
X64008600Y-76082000D03*
D19*
X65507200Y-74882000D03*
%TD*%
D20*
%TO.C,R1*%
X68275200Y-87018500D03*
X68275200Y-85193500D03*
%TD*%
D14*
%TO.C,C4*%
X60757900Y-75387200D03*
X62482900Y-75387200D03*
%TD*%
%TO.C,C2*%
X60757900Y-73863200D03*
X62482900Y-73863200D03*
%TD*%
D21*
%TO.C,C5*%
X76425000Y-76350000D03*
X76425000Y-79475000D03*
%TD*%
D22*
%TO.C,J1*%
X97137601Y-76668599D03*
X97137601Y-78668601D03*
D23*
X94462600Y-76368600D03*
X94462600Y-77018601D03*
X94462600Y-77668600D03*
X94462600Y-78318599D03*
X94462600Y-78968600D03*
%TD*%
D13*
%TO.C,C7*%
X68757800Y-76886900D03*
X68757800Y-78611900D03*
%TD*%
D24*
%TO.C,J3*%
X66219600Y-86532600D03*
X66719600Y-79532600D03*
X64519600Y-79532600D03*
X60719600Y-86532600D03*
X57319600Y-79532600D03*
X57319600Y-86532600D03*
%TD*%
D16*
%TO.C,C1*%
X72085200Y-75031600D03*
X72085200Y-76756600D03*
%TD*%
D13*
%TO.C,C8*%
X70307200Y-78610800D03*
X70307200Y-76885800D03*
%TD*%
M02*
