%TF.GenerationSoftware,KiCad,Pcbnew,(6.0.1-0)*%
%TF.CreationDate,2022-02-13T14:14:42-05:00*%
%TF.ProjectId,usbAudio,75736241-7564-4696-9f2e-6b696361645f,rev?*%
%TF.SameCoordinates,Original*%
%TF.FileFunction,Legend,Top*%
%TF.FilePolarity,Positive*%
%FSLAX46Y46*%
G04 Gerber Fmt 4.6, Leading zero omitted, Abs format (unit mm)*
G04 Created by KiCad (PCBNEW (6.0.1-0)) date 2022-02-13 14:14:42*
%MOMM*%
%LPD*%
G01*
G04 APERTURE LIST*
%ADD10C,0.150000*%
%ADD11C,0.125000*%
%ADD12C,0.120000*%
%ADD13C,0.100000*%
G04 APERTURE END LIST*
D10*
X57100000Y-77157142D02*
X57071428Y-77214285D01*
X57071428Y-77300000D01*
X57100000Y-77385714D01*
X57157142Y-77442857D01*
X57214285Y-77471428D01*
X57328571Y-77500000D01*
X57414285Y-77500000D01*
X57528571Y-77471428D01*
X57585714Y-77442857D01*
X57642857Y-77385714D01*
X57671428Y-77300000D01*
X57671428Y-77242857D01*
X57642857Y-77157142D01*
X57614285Y-77128571D01*
X57414285Y-77128571D01*
X57414285Y-77242857D01*
X57500000Y-76900000D02*
X57500000Y-76614285D01*
X57671428Y-76957142D02*
X57071428Y-76757142D01*
X57671428Y-76557142D01*
X57671428Y-76357142D02*
X57071428Y-76357142D01*
X57671428Y-76071428D02*
X57071428Y-76071428D01*
X57671428Y-75728571D01*
X57071428Y-75728571D01*
X71467742Y-73845742D02*
X71553457Y-73874314D01*
X71582028Y-73902885D01*
X71610600Y-73960028D01*
X71610600Y-74045742D01*
X71582028Y-74102885D01*
X71553457Y-74131457D01*
X71496314Y-74160028D01*
X71267742Y-74160028D01*
X71267742Y-73560028D01*
X71467742Y-73560028D01*
X71524885Y-73588600D01*
X71553457Y-73617171D01*
X71582028Y-73674314D01*
X71582028Y-73731457D01*
X71553457Y-73788600D01*
X71524885Y-73817171D01*
X71467742Y-73845742D01*
X71267742Y-73845742D01*
X71867742Y-74160028D02*
X71867742Y-73560028D01*
X72124885Y-73988600D02*
X72410600Y-73988600D01*
X72067742Y-74160028D02*
X72267742Y-73560028D01*
X72467742Y-74160028D01*
X72639171Y-74131457D02*
X72724885Y-74160028D01*
X72867742Y-74160028D01*
X72924885Y-74131457D01*
X72953457Y-74102885D01*
X72982028Y-74045742D01*
X72982028Y-73988600D01*
X72953457Y-73931457D01*
X72924885Y-73902885D01*
X72867742Y-73874314D01*
X72753457Y-73845742D01*
X72696314Y-73817171D01*
X72667742Y-73788600D01*
X72639171Y-73731457D01*
X72639171Y-73674314D01*
X72667742Y-73617171D01*
X72696314Y-73588600D01*
X72753457Y-73560028D01*
X72896314Y-73560028D01*
X72982028Y-73588600D01*
D11*
%TO.C,C6*%
X63797171Y-77139533D02*
X63820980Y-77163342D01*
X63844790Y-77234771D01*
X63844790Y-77282390D01*
X63820980Y-77353819D01*
X63773361Y-77401438D01*
X63725742Y-77425247D01*
X63630504Y-77449057D01*
X63559076Y-77449057D01*
X63463838Y-77425247D01*
X63416219Y-77401438D01*
X63368600Y-77353819D01*
X63344790Y-77282390D01*
X63344790Y-77234771D01*
X63368600Y-77163342D01*
X63392409Y-77139533D01*
X63344790Y-76710961D02*
X63344790Y-76806200D01*
X63368600Y-76853819D01*
X63392409Y-76877628D01*
X63463838Y-76925247D01*
X63559076Y-76949057D01*
X63749552Y-76949057D01*
X63797171Y-76925247D01*
X63820980Y-76901438D01*
X63844790Y-76853819D01*
X63844790Y-76758580D01*
X63820980Y-76710961D01*
X63797171Y-76687152D01*
X63749552Y-76663342D01*
X63630504Y-76663342D01*
X63582885Y-76687152D01*
X63559076Y-76710961D01*
X63535266Y-76758580D01*
X63535266Y-76853819D01*
X63559076Y-76901438D01*
X63582885Y-76925247D01*
X63630504Y-76949057D01*
%TO.C,C15*%
X78986971Y-83578571D02*
X78963161Y-83602380D01*
X78891733Y-83626190D01*
X78844114Y-83626190D01*
X78772685Y-83602380D01*
X78725066Y-83554761D01*
X78701257Y-83507142D01*
X78677447Y-83411904D01*
X78677447Y-83340476D01*
X78701257Y-83245238D01*
X78725066Y-83197619D01*
X78772685Y-83150000D01*
X78844114Y-83126190D01*
X78891733Y-83126190D01*
X78963161Y-83150000D01*
X78986971Y-83173809D01*
X79463161Y-83626190D02*
X79177447Y-83626190D01*
X79320304Y-83626190D02*
X79320304Y-83126190D01*
X79272685Y-83197619D01*
X79225066Y-83245238D01*
X79177447Y-83269047D01*
X79915542Y-83126190D02*
X79677447Y-83126190D01*
X79653638Y-83364285D01*
X79677447Y-83340476D01*
X79725066Y-83316666D01*
X79844114Y-83316666D01*
X79891733Y-83340476D01*
X79915542Y-83364285D01*
X79939352Y-83411904D01*
X79939352Y-83530952D01*
X79915542Y-83578571D01*
X79891733Y-83602380D01*
X79844114Y-83626190D01*
X79725066Y-83626190D01*
X79677447Y-83602380D01*
X79653638Y-83578571D01*
%TO.C,R4*%
X89351890Y-74265733D02*
X89113795Y-74432400D01*
X89351890Y-74551447D02*
X88851890Y-74551447D01*
X88851890Y-74360971D01*
X88875700Y-74313352D01*
X88899509Y-74289542D01*
X88947128Y-74265733D01*
X89018557Y-74265733D01*
X89066176Y-74289542D01*
X89089985Y-74313352D01*
X89113795Y-74360971D01*
X89113795Y-74551447D01*
X89018557Y-73837161D02*
X89351890Y-73837161D01*
X88828080Y-73956209D02*
X89185223Y-74075257D01*
X89185223Y-73765733D01*
%TO.C,R5*%
X89351890Y-75765733D02*
X89113795Y-75932400D01*
X89351890Y-76051447D02*
X88851890Y-76051447D01*
X88851890Y-75860971D01*
X88875700Y-75813352D01*
X88899509Y-75789542D01*
X88947128Y-75765733D01*
X89018557Y-75765733D01*
X89066176Y-75789542D01*
X89089985Y-75813352D01*
X89113795Y-75860971D01*
X89113795Y-76051447D01*
X88851890Y-75313352D02*
X88851890Y-75551447D01*
X89089985Y-75575257D01*
X89066176Y-75551447D01*
X89042366Y-75503828D01*
X89042366Y-75384780D01*
X89066176Y-75337161D01*
X89089985Y-75313352D01*
X89137604Y-75289542D01*
X89256652Y-75289542D01*
X89304271Y-75313352D01*
X89328080Y-75337161D01*
X89351890Y-75384780D01*
X89351890Y-75503828D01*
X89328080Y-75551447D01*
X89304271Y-75575257D01*
%TO.C,R9*%
X89350790Y-79439133D02*
X89112695Y-79605800D01*
X89350790Y-79724847D02*
X88850790Y-79724847D01*
X88850790Y-79534371D01*
X88874600Y-79486752D01*
X88898409Y-79462942D01*
X88946028Y-79439133D01*
X89017457Y-79439133D01*
X89065076Y-79462942D01*
X89088885Y-79486752D01*
X89112695Y-79534371D01*
X89112695Y-79724847D01*
X89350790Y-79201038D02*
X89350790Y-79105800D01*
X89326980Y-79058180D01*
X89303171Y-79034371D01*
X89231742Y-78986752D01*
X89136504Y-78962942D01*
X88946028Y-78962942D01*
X88898409Y-78986752D01*
X88874600Y-79010561D01*
X88850790Y-79058180D01*
X88850790Y-79153419D01*
X88874600Y-79201038D01*
X88898409Y-79224847D01*
X88946028Y-79248657D01*
X89065076Y-79248657D01*
X89112695Y-79224847D01*
X89136504Y-79201038D01*
X89160314Y-79153419D01*
X89160314Y-79058180D01*
X89136504Y-79010561D01*
X89112695Y-78986752D01*
X89065076Y-78962942D01*
%TO.C,R10*%
X89511290Y-86121428D02*
X89273195Y-86288095D01*
X89511290Y-86407142D02*
X89011290Y-86407142D01*
X89011290Y-86216666D01*
X89035100Y-86169047D01*
X89058909Y-86145238D01*
X89106528Y-86121428D01*
X89177957Y-86121428D01*
X89225576Y-86145238D01*
X89249385Y-86169047D01*
X89273195Y-86216666D01*
X89273195Y-86407142D01*
X89511290Y-85645238D02*
X89511290Y-85930952D01*
X89511290Y-85788095D02*
X89011290Y-85788095D01*
X89082719Y-85835714D01*
X89130338Y-85883333D01*
X89154147Y-85930952D01*
X89011290Y-85335714D02*
X89011290Y-85288095D01*
X89035100Y-85240476D01*
X89058909Y-85216666D01*
X89106528Y-85192857D01*
X89201766Y-85169047D01*
X89320814Y-85169047D01*
X89416052Y-85192857D01*
X89463671Y-85216666D01*
X89487480Y-85240476D01*
X89511290Y-85288095D01*
X89511290Y-85335714D01*
X89487480Y-85383333D01*
X89463671Y-85407142D01*
X89416052Y-85430952D01*
X89320814Y-85454761D01*
X89201766Y-85454761D01*
X89106528Y-85430952D01*
X89058909Y-85407142D01*
X89035100Y-85383333D01*
X89011290Y-85335714D01*
D10*
%TO.C,U1*%
X88152380Y-74450000D02*
X88390476Y-74450000D01*
X88295238Y-74688095D02*
X88390476Y-74450000D01*
X88295238Y-74211904D01*
X88580952Y-74592857D02*
X88390476Y-74450000D01*
X88580952Y-74307142D01*
D11*
%TO.C,C14*%
X89460671Y-84674528D02*
X89484480Y-84698338D01*
X89508290Y-84769766D01*
X89508290Y-84817385D01*
X89484480Y-84888814D01*
X89436861Y-84936433D01*
X89389242Y-84960242D01*
X89294004Y-84984052D01*
X89222576Y-84984052D01*
X89127338Y-84960242D01*
X89079719Y-84936433D01*
X89032100Y-84888814D01*
X89008290Y-84817385D01*
X89008290Y-84769766D01*
X89032100Y-84698338D01*
X89055909Y-84674528D01*
X89508290Y-84198338D02*
X89508290Y-84484052D01*
X89508290Y-84341195D02*
X89008290Y-84341195D01*
X89079719Y-84388814D01*
X89127338Y-84436433D01*
X89151147Y-84484052D01*
X89174957Y-83769766D02*
X89508290Y-83769766D01*
X88984480Y-83888814D02*
X89341623Y-84007861D01*
X89341623Y-83698338D01*
%TO.C,C9*%
X89307171Y-82353933D02*
X89330980Y-82377742D01*
X89354790Y-82449171D01*
X89354790Y-82496790D01*
X89330980Y-82568219D01*
X89283361Y-82615838D01*
X89235742Y-82639647D01*
X89140504Y-82663457D01*
X89069076Y-82663457D01*
X88973838Y-82639647D01*
X88926219Y-82615838D01*
X88878600Y-82568219D01*
X88854790Y-82496790D01*
X88854790Y-82449171D01*
X88878600Y-82377742D01*
X88902409Y-82353933D01*
X89354790Y-82115838D02*
X89354790Y-82020600D01*
X89330980Y-81972980D01*
X89307171Y-81949171D01*
X89235742Y-81901552D01*
X89140504Y-81877742D01*
X88950028Y-81877742D01*
X88902409Y-81901552D01*
X88878600Y-81925361D01*
X88854790Y-81972980D01*
X88854790Y-82068219D01*
X88878600Y-82115838D01*
X88902409Y-82139647D01*
X88950028Y-82163457D01*
X89069076Y-82163457D01*
X89116695Y-82139647D01*
X89140504Y-82115838D01*
X89164314Y-82068219D01*
X89164314Y-81972980D01*
X89140504Y-81925361D01*
X89116695Y-81901552D01*
X89069076Y-81877742D01*
%TO.C,C12*%
X89303171Y-81278028D02*
X89326980Y-81301838D01*
X89350790Y-81373266D01*
X89350790Y-81420885D01*
X89326980Y-81492314D01*
X89279361Y-81539933D01*
X89231742Y-81563742D01*
X89136504Y-81587552D01*
X89065076Y-81587552D01*
X88969838Y-81563742D01*
X88922219Y-81539933D01*
X88874600Y-81492314D01*
X88850790Y-81420885D01*
X88850790Y-81373266D01*
X88874600Y-81301838D01*
X88898409Y-81278028D01*
X89350790Y-80801838D02*
X89350790Y-81087552D01*
X89350790Y-80944695D02*
X88850790Y-80944695D01*
X88922219Y-80992314D01*
X88969838Y-81039933D01*
X88993647Y-81087552D01*
X88898409Y-80611361D02*
X88874600Y-80587552D01*
X88850790Y-80539933D01*
X88850790Y-80420885D01*
X88874600Y-80373266D01*
X88898409Y-80349457D01*
X88946028Y-80325647D01*
X88993647Y-80325647D01*
X89065076Y-80349457D01*
X89350790Y-80635171D01*
X89350790Y-80325647D01*
%TO.C,C10*%
X75911141Y-83304501D02*
X75887331Y-83328310D01*
X75815903Y-83352120D01*
X75768284Y-83352120D01*
X75696855Y-83328310D01*
X75649236Y-83280691D01*
X75625427Y-83233072D01*
X75601617Y-83137834D01*
X75601617Y-83066406D01*
X75625427Y-82971168D01*
X75649236Y-82923549D01*
X75696855Y-82875930D01*
X75768284Y-82852120D01*
X75815903Y-82852120D01*
X75887331Y-82875930D01*
X75911141Y-82899739D01*
X76387331Y-83352120D02*
X76101617Y-83352120D01*
X76244474Y-83352120D02*
X76244474Y-82852120D01*
X76196855Y-82923549D01*
X76149236Y-82971168D01*
X76101617Y-82994977D01*
X76696855Y-82852120D02*
X76744474Y-82852120D01*
X76792093Y-82875930D01*
X76815903Y-82899739D01*
X76839712Y-82947358D01*
X76863522Y-83042596D01*
X76863522Y-83161644D01*
X76839712Y-83256882D01*
X76815903Y-83304501D01*
X76792093Y-83328310D01*
X76744474Y-83352120D01*
X76696855Y-83352120D01*
X76649236Y-83328310D01*
X76625427Y-83304501D01*
X76601617Y-83256882D01*
X76577808Y-83161644D01*
X76577808Y-83042596D01*
X76601617Y-82947358D01*
X76625427Y-82899739D01*
X76649236Y-82875930D01*
X76696855Y-82852120D01*
%TO.C,C11*%
X74336341Y-83304501D02*
X74312531Y-83328310D01*
X74241103Y-83352120D01*
X74193484Y-83352120D01*
X74122055Y-83328310D01*
X74074436Y-83280691D01*
X74050627Y-83233072D01*
X74026817Y-83137834D01*
X74026817Y-83066406D01*
X74050627Y-82971168D01*
X74074436Y-82923549D01*
X74122055Y-82875930D01*
X74193484Y-82852120D01*
X74241103Y-82852120D01*
X74312531Y-82875930D01*
X74336341Y-82899739D01*
X74812531Y-83352120D02*
X74526817Y-83352120D01*
X74669674Y-83352120D02*
X74669674Y-82852120D01*
X74622055Y-82923549D01*
X74574436Y-82971168D01*
X74526817Y-82994977D01*
X75288722Y-83352120D02*
X75003008Y-83352120D01*
X75145865Y-83352120D02*
X75145865Y-82852120D01*
X75098246Y-82923549D01*
X75050627Y-82971168D01*
X75003008Y-82994977D01*
%TO.C,R6*%
X89328090Y-77707633D02*
X89089995Y-77874300D01*
X89328090Y-77993347D02*
X88828090Y-77993347D01*
X88828090Y-77802871D01*
X88851900Y-77755252D01*
X88875709Y-77731442D01*
X88923328Y-77707633D01*
X88994757Y-77707633D01*
X89042376Y-77731442D01*
X89066185Y-77755252D01*
X89089995Y-77802871D01*
X89089995Y-77993347D01*
X88828090Y-77279061D02*
X88828090Y-77374300D01*
X88851900Y-77421919D01*
X88875709Y-77445728D01*
X88947138Y-77493347D01*
X89042376Y-77517157D01*
X89232852Y-77517157D01*
X89280471Y-77493347D01*
X89304280Y-77469538D01*
X89328090Y-77421919D01*
X89328090Y-77326680D01*
X89304280Y-77279061D01*
X89280471Y-77255252D01*
X89232852Y-77231442D01*
X89113804Y-77231442D01*
X89066185Y-77255252D01*
X89042376Y-77279061D01*
X89018566Y-77326680D01*
X89018566Y-77421919D01*
X89042376Y-77469538D01*
X89066185Y-77493347D01*
X89113804Y-77517157D01*
%TO.C,R7*%
X59342266Y-79397790D02*
X59175600Y-79159695D01*
X59056552Y-79397790D02*
X59056552Y-78897790D01*
X59247028Y-78897790D01*
X59294647Y-78921600D01*
X59318457Y-78945409D01*
X59342266Y-78993028D01*
X59342266Y-79064457D01*
X59318457Y-79112076D01*
X59294647Y-79135885D01*
X59247028Y-79159695D01*
X59056552Y-79159695D01*
X59508933Y-78897790D02*
X59842266Y-78897790D01*
X59627980Y-79397790D01*
%TO.C,R1*%
X68351436Y-83377520D02*
X68184770Y-83139425D01*
X68065722Y-83377520D02*
X68065722Y-82877520D01*
X68256198Y-82877520D01*
X68303817Y-82901330D01*
X68327627Y-82925139D01*
X68351436Y-82972758D01*
X68351436Y-83044187D01*
X68327627Y-83091806D01*
X68303817Y-83115615D01*
X68256198Y-83139425D01*
X68065722Y-83139425D01*
X68827627Y-83377520D02*
X68541912Y-83377520D01*
X68684770Y-83377520D02*
X68684770Y-82877520D01*
X68637150Y-82948949D01*
X68589531Y-82996568D01*
X68541912Y-83020377D01*
%TO.C,R8*%
X59352266Y-78567790D02*
X59185600Y-78329695D01*
X59066552Y-78567790D02*
X59066552Y-78067790D01*
X59257028Y-78067790D01*
X59304647Y-78091600D01*
X59328457Y-78115409D01*
X59352266Y-78163028D01*
X59352266Y-78234457D01*
X59328457Y-78282076D01*
X59304647Y-78305885D01*
X59257028Y-78329695D01*
X59066552Y-78329695D01*
X59637980Y-78282076D02*
X59590361Y-78258266D01*
X59566552Y-78234457D01*
X59542742Y-78186838D01*
X59542742Y-78163028D01*
X59566552Y-78115409D01*
X59590361Y-78091600D01*
X59637980Y-78067790D01*
X59733219Y-78067790D01*
X59780838Y-78091600D01*
X59804647Y-78115409D01*
X59828457Y-78163028D01*
X59828457Y-78186838D01*
X59804647Y-78234457D01*
X59780838Y-78258266D01*
X59733219Y-78282076D01*
X59637980Y-78282076D01*
X59590361Y-78305885D01*
X59566552Y-78329695D01*
X59542742Y-78377314D01*
X59542742Y-78472552D01*
X59566552Y-78520171D01*
X59590361Y-78543980D01*
X59637980Y-78567790D01*
X59733219Y-78567790D01*
X59780838Y-78543980D01*
X59804647Y-78520171D01*
X59828457Y-78472552D01*
X59828457Y-78377314D01*
X59804647Y-78329695D01*
X59780838Y-78305885D01*
X59733219Y-78282076D01*
%TO.C,C4*%
X59428866Y-75210171D02*
X59405057Y-75233980D01*
X59333628Y-75257790D01*
X59286009Y-75257790D01*
X59214580Y-75233980D01*
X59166961Y-75186361D01*
X59143152Y-75138742D01*
X59119342Y-75043504D01*
X59119342Y-74972076D01*
X59143152Y-74876838D01*
X59166961Y-74829219D01*
X59214580Y-74781600D01*
X59286009Y-74757790D01*
X59333628Y-74757790D01*
X59405057Y-74781600D01*
X59428866Y-74805409D01*
X59857438Y-74924457D02*
X59857438Y-75257790D01*
X59738390Y-74733980D02*
X59619342Y-75091123D01*
X59928866Y-75091123D01*
%TO.C,C2*%
X59352666Y-73660771D02*
X59328857Y-73684580D01*
X59257428Y-73708390D01*
X59209809Y-73708390D01*
X59138380Y-73684580D01*
X59090761Y-73636961D01*
X59066952Y-73589342D01*
X59043142Y-73494104D01*
X59043142Y-73422676D01*
X59066952Y-73327438D01*
X59090761Y-73279819D01*
X59138380Y-73232200D01*
X59209809Y-73208390D01*
X59257428Y-73208390D01*
X59328857Y-73232200D01*
X59352666Y-73256009D01*
X59543142Y-73256009D02*
X59566952Y-73232200D01*
X59614571Y-73208390D01*
X59733619Y-73208390D01*
X59781238Y-73232200D01*
X59805047Y-73256009D01*
X59828857Y-73303628D01*
X59828857Y-73351247D01*
X59805047Y-73422676D01*
X59519333Y-73708390D01*
X59828857Y-73708390D01*
%TO.C,C7*%
X67778571Y-77283333D02*
X67802380Y-77307142D01*
X67826190Y-77378571D01*
X67826190Y-77426190D01*
X67802380Y-77497619D01*
X67754761Y-77545238D01*
X67707142Y-77569047D01*
X67611904Y-77592857D01*
X67540476Y-77592857D01*
X67445238Y-77569047D01*
X67397619Y-77545238D01*
X67350000Y-77497619D01*
X67326190Y-77426190D01*
X67326190Y-77378571D01*
X67350000Y-77307142D01*
X67373809Y-77283333D01*
X67326190Y-77116666D02*
X67326190Y-76783333D01*
X67826190Y-76997619D01*
%TO.C,C16*%
X71212141Y-83304501D02*
X71188331Y-83328310D01*
X71116903Y-83352120D01*
X71069284Y-83352120D01*
X70997855Y-83328310D01*
X70950236Y-83280691D01*
X70926427Y-83233072D01*
X70902617Y-83137834D01*
X70902617Y-83066406D01*
X70926427Y-82971168D01*
X70950236Y-82923549D01*
X70997855Y-82875930D01*
X71069284Y-82852120D01*
X71116903Y-82852120D01*
X71188331Y-82875930D01*
X71212141Y-82899739D01*
X71688331Y-83352120D02*
X71402617Y-83352120D01*
X71545474Y-83352120D02*
X71545474Y-82852120D01*
X71497855Y-82923549D01*
X71450236Y-82971168D01*
X71402617Y-82994977D01*
X72116903Y-82852120D02*
X72021665Y-82852120D01*
X71974046Y-82875930D01*
X71950236Y-82899739D01*
X71902617Y-82971168D01*
X71878808Y-83066406D01*
X71878808Y-83256882D01*
X71902617Y-83304501D01*
X71926427Y-83328310D01*
X71974046Y-83352120D01*
X72069284Y-83352120D01*
X72116903Y-83328310D01*
X72140712Y-83304501D01*
X72164522Y-83256882D01*
X72164522Y-83137834D01*
X72140712Y-83090215D01*
X72116903Y-83066406D01*
X72069284Y-83042596D01*
X71974046Y-83042596D01*
X71926427Y-83066406D01*
X71902617Y-83090215D01*
X71878808Y-83137834D01*
%TO.C,C1*%
X73278571Y-75983333D02*
X73302380Y-76007142D01*
X73326190Y-76078571D01*
X73326190Y-76126190D01*
X73302380Y-76197619D01*
X73254761Y-76245238D01*
X73207142Y-76269047D01*
X73111904Y-76292857D01*
X73040476Y-76292857D01*
X72945238Y-76269047D01*
X72897619Y-76245238D01*
X72850000Y-76197619D01*
X72826190Y-76126190D01*
X72826190Y-76078571D01*
X72850000Y-76007142D01*
X72873809Y-75983333D01*
X73326190Y-75507142D02*
X73326190Y-75792857D01*
X73326190Y-75650000D02*
X72826190Y-75650000D01*
X72897619Y-75697619D01*
X72945238Y-75745238D01*
X72969047Y-75792857D01*
%TO.C,C13*%
X72736141Y-83304501D02*
X72712331Y-83328310D01*
X72640903Y-83352120D01*
X72593284Y-83352120D01*
X72521855Y-83328310D01*
X72474236Y-83280691D01*
X72450427Y-83233072D01*
X72426617Y-83137834D01*
X72426617Y-83066406D01*
X72450427Y-82971168D01*
X72474236Y-82923549D01*
X72521855Y-82875930D01*
X72593284Y-82852120D01*
X72640903Y-82852120D01*
X72712331Y-82875930D01*
X72736141Y-82899739D01*
X73212331Y-83352120D02*
X72926617Y-83352120D01*
X73069474Y-83352120D02*
X73069474Y-82852120D01*
X73021855Y-82923549D01*
X72974236Y-82971168D01*
X72926617Y-82994977D01*
X73378998Y-82852120D02*
X73688522Y-82852120D01*
X73521855Y-83042596D01*
X73593284Y-83042596D01*
X73640903Y-83066406D01*
X73664712Y-83090215D01*
X73688522Y-83137834D01*
X73688522Y-83256882D01*
X73664712Y-83304501D01*
X73640903Y-83328310D01*
X73593284Y-83352120D01*
X73450427Y-83352120D01*
X73402808Y-83328310D01*
X73378998Y-83304501D01*
%TO.C,C8*%
X71578571Y-77883333D02*
X71602380Y-77907142D01*
X71626190Y-77978571D01*
X71626190Y-78026190D01*
X71602380Y-78097619D01*
X71554761Y-78145238D01*
X71507142Y-78169047D01*
X71411904Y-78192857D01*
X71340476Y-78192857D01*
X71245238Y-78169047D01*
X71197619Y-78145238D01*
X71150000Y-78097619D01*
X71126190Y-78026190D01*
X71126190Y-77978571D01*
X71150000Y-77907142D01*
X71173809Y-77883333D01*
X71340476Y-77597619D02*
X71316666Y-77645238D01*
X71292857Y-77669047D01*
X71245238Y-77692857D01*
X71221428Y-77692857D01*
X71173809Y-77669047D01*
X71150000Y-77645238D01*
X71126190Y-77597619D01*
X71126190Y-77502380D01*
X71150000Y-77454761D01*
X71173809Y-77430952D01*
X71221428Y-77407142D01*
X71245238Y-77407142D01*
X71292857Y-77430952D01*
X71316666Y-77454761D01*
X71340476Y-77502380D01*
X71340476Y-77597619D01*
X71364285Y-77645238D01*
X71388095Y-77669047D01*
X71435714Y-77692857D01*
X71530952Y-77692857D01*
X71578571Y-77669047D01*
X71602380Y-77645238D01*
X71626190Y-77597619D01*
X71626190Y-77502380D01*
X71602380Y-77454761D01*
X71578571Y-77430952D01*
X71530952Y-77407142D01*
X71435714Y-77407142D01*
X71388095Y-77430952D01*
X71364285Y-77454761D01*
X71340476Y-77502380D01*
%TO.C,C17*%
X69586541Y-83329901D02*
X69562731Y-83353710D01*
X69491303Y-83377520D01*
X69443684Y-83377520D01*
X69372255Y-83353710D01*
X69324636Y-83306091D01*
X69300827Y-83258472D01*
X69277017Y-83163234D01*
X69277017Y-83091806D01*
X69300827Y-82996568D01*
X69324636Y-82948949D01*
X69372255Y-82901330D01*
X69443684Y-82877520D01*
X69491303Y-82877520D01*
X69562731Y-82901330D01*
X69586541Y-82925139D01*
X70062731Y-83377520D02*
X69777017Y-83377520D01*
X69919874Y-83377520D02*
X69919874Y-82877520D01*
X69872255Y-82948949D01*
X69824636Y-82996568D01*
X69777017Y-83020377D01*
X70229398Y-82877520D02*
X70562731Y-82877520D01*
X70348446Y-83377520D01*
D10*
%TO.C,U4*%
X67088665Y-80561510D02*
X67088665Y-81371034D01*
X67136284Y-81466272D01*
X67183903Y-81513891D01*
X67279141Y-81561510D01*
X67469617Y-81561510D01*
X67564855Y-81513891D01*
X67612474Y-81466272D01*
X67660093Y-81371034D01*
X67660093Y-80561510D01*
X68564855Y-80894844D02*
X68564855Y-81561510D01*
X68326760Y-80513891D02*
X68088665Y-81228177D01*
X68707712Y-81228177D01*
D12*
%TO.C,C6*%
X65602067Y-77548200D02*
X65309533Y-77548200D01*
X65602067Y-76528200D02*
X65309533Y-76528200D01*
%TO.C,C15*%
X78865000Y-85172333D02*
X78865000Y-85464867D01*
X79885000Y-85172333D02*
X79885000Y-85464867D01*
%TO.C,R4*%
X90803476Y-73607400D02*
X91312924Y-73607400D01*
X90803476Y-74652400D02*
X91312924Y-74652400D01*
%TO.C,R5*%
X90803476Y-76176400D02*
X91312924Y-76176400D01*
X90803476Y-75131400D02*
X91312924Y-75131400D01*
%TO.C,R9*%
X90802376Y-78802800D02*
X91311824Y-78802800D01*
X90802376Y-79847800D02*
X91311824Y-79847800D01*
%TO.C,R10*%
X87045076Y-85151700D02*
X87554524Y-85151700D01*
X87045076Y-86196700D02*
X87554524Y-86196700D01*
%TO.C,U1*%
X88066641Y-80899000D02*
X88665101Y-80899000D01*
X77920901Y-75057000D02*
X77920901Y-80899000D01*
X78519363Y-75057000D02*
X77920901Y-75057000D01*
X77920901Y-80899000D02*
X78519361Y-80899000D01*
X88665101Y-80899000D02*
X88665101Y-75057000D01*
X88665101Y-75057000D02*
X88066641Y-75057000D01*
D13*
X82508502Y-82943700D02*
X82127502Y-82943700D01*
X82127502Y-82943700D02*
X82127502Y-82689700D01*
X82127502Y-82689700D02*
X82508502Y-82689700D01*
X82508502Y-82689700D02*
X82508502Y-82943700D01*
G36*
X82508502Y-82943700D02*
G01*
X82127502Y-82943700D01*
X82127502Y-82689700D01*
X82508502Y-82689700D01*
X82508502Y-82943700D01*
G37*
X82508502Y-82943700D02*
X82127502Y-82943700D01*
X82127502Y-82689700D01*
X82508502Y-82689700D01*
X82508502Y-82943700D01*
X81858503Y-73012300D02*
X81477503Y-73012300D01*
X81477503Y-73012300D02*
X81477503Y-73266300D01*
X81477503Y-73266300D02*
X81858503Y-73266300D01*
X81858503Y-73266300D02*
X81858503Y-73012300D01*
G36*
X81858503Y-73266300D02*
G01*
X81477503Y-73266300D01*
X81477503Y-73012300D01*
X81858503Y-73012300D01*
X81858503Y-73266300D01*
G37*
X81858503Y-73266300D02*
X81477503Y-73266300D01*
X81477503Y-73012300D01*
X81858503Y-73012300D01*
X81858503Y-73266300D01*
D12*
%TO.C,Y1*%
X85631800Y-83163800D02*
X80331800Y-83163800D01*
X85631800Y-86863800D02*
X85631800Y-83163800D01*
%TO.C,C14*%
X87153533Y-83792600D02*
X87446067Y-83792600D01*
X87153533Y-84812600D02*
X87446067Y-84812600D01*
%TO.C,C9*%
X91183767Y-82983800D02*
X90891233Y-82983800D01*
X91183767Y-81963800D02*
X90891233Y-81963800D01*
%TO.C,C12*%
X90913833Y-80390100D02*
X91206367Y-80390100D01*
X90913833Y-81410100D02*
X91206367Y-81410100D01*
%TO.C,C10*%
X76743370Y-85176597D02*
X76743370Y-84884063D01*
X75723370Y-85176597D02*
X75723370Y-84884063D01*
%TO.C,C11*%
X74173370Y-85164097D02*
X74173370Y-84871563D01*
X75193370Y-85164097D02*
X75193370Y-84871563D01*
%TO.C,C3*%
X73664400Y-77978052D02*
X73664400Y-76555548D01*
X75484400Y-77978052D02*
X75484400Y-76555548D01*
%TO.C,R6*%
X90829676Y-77125300D02*
X91339124Y-77125300D01*
X90829676Y-78170300D02*
X91339124Y-78170300D01*
%TO.C,U2*%
X63830800Y-76558400D02*
X67183600Y-76558400D01*
X67183600Y-73205600D02*
X63830800Y-73205600D01*
X67913800Y-76082000D02*
G75*
G03*
X67913800Y-76082000I-101600J0D01*
G01*
%TO.C,R7*%
X61375276Y-79181900D02*
X61884724Y-79181900D01*
X61375276Y-78136900D02*
X61884724Y-78136900D01*
%TO.C,R1*%
X67836070Y-84801606D02*
X67836070Y-85311054D01*
X68881070Y-84801606D02*
X68881070Y-85311054D01*
%TO.C,R8*%
X61375276Y-76587500D02*
X61884724Y-76587500D01*
X61375276Y-77632500D02*
X61884724Y-77632500D01*
%TO.C,C4*%
X61766667Y-74877200D02*
X61474133Y-74877200D01*
X61766667Y-75897200D02*
X61474133Y-75897200D01*
%TO.C,C2*%
X61766667Y-73353200D02*
X61474133Y-73353200D01*
X61766667Y-74373200D02*
X61474133Y-74373200D01*
%TO.C,C5*%
X76048400Y-76553948D02*
X76048400Y-77976452D01*
X77868400Y-76553948D02*
X77868400Y-77976452D01*
%TO.C,J1*%
X96334909Y-73515700D02*
X94160600Y-73515700D01*
X94160600Y-81092003D02*
X94160600Y-81821500D01*
X94160600Y-73515700D02*
X94160600Y-74245197D01*
X94160600Y-81821500D02*
X96334909Y-81821500D01*
%TO.C,C7*%
X69267800Y-77603133D02*
X69267800Y-77895667D01*
X68247800Y-77603133D02*
X68247800Y-77895667D01*
%TO.C,JP1*%
X68145200Y-74925200D02*
G75*
G03*
X68845200Y-75625200I699999J-1D01*
G01*
X68845200Y-73625200D02*
G75*
G03*
X68145200Y-74325200I-1J-699999D01*
G01*
X70245200Y-75625200D02*
G75*
G03*
X70945200Y-74925200I1J699999D01*
G01*
X70945200Y-74325200D02*
G75*
G03*
X70245200Y-73625200I-699999J1D01*
G01*
X68845200Y-73625200D02*
X70245200Y-73625200D01*
X70945200Y-74325200D02*
X70945200Y-74925200D01*
X68145200Y-74925200D02*
X68145200Y-74325200D01*
X70245200Y-75625200D02*
X68845200Y-75625200D01*
%TO.C,J2*%
X73270000Y-74328400D02*
X73270000Y-73378400D01*
X77370000Y-74478400D02*
X77520000Y-74328400D01*
X77520000Y-73378400D02*
X77520000Y-74328400D01*
X74120000Y-75128400D02*
X76720000Y-75128400D01*
X73420000Y-74478400D02*
X73270000Y-74328400D01*
X76720000Y-75128400D02*
X76970000Y-74878400D01*
X74120000Y-75128400D02*
X73870000Y-74878400D01*
%TO.C,JP2*%
X60000000Y-75800000D02*
X60000000Y-77200000D01*
X58700000Y-75100000D02*
X59300000Y-75100000D01*
X58000000Y-77200000D02*
X58000000Y-75800000D01*
X59300000Y-77900000D02*
X58700000Y-77900000D01*
X58000000Y-77200000D02*
G75*
G03*
X58700000Y-77900000I699999J-1D01*
G01*
X60000000Y-75800000D02*
G75*
G03*
X59300000Y-75100000I-699999J1D01*
G01*
X59300000Y-77900000D02*
G75*
G03*
X60000000Y-77200000I1J699999D01*
G01*
X58700000Y-75100000D02*
G75*
G03*
X58000000Y-75800000I-1J-699999D01*
G01*
%TO.C,C16*%
X70998170Y-84884663D02*
X70998170Y-85177197D01*
X72018170Y-84884663D02*
X72018170Y-85177197D01*
%TO.C,C1*%
X72595200Y-76040367D02*
X72595200Y-75747833D01*
X71575200Y-76040367D02*
X71575200Y-75747833D01*
%TO.C,C13*%
X72547570Y-84884663D02*
X72547570Y-85177197D01*
X73567570Y-84884663D02*
X73567570Y-85177197D01*
%TO.C,C8*%
X70817200Y-77602033D02*
X70817200Y-77894567D01*
X69797200Y-77602033D02*
X69797200Y-77894567D01*
%TO.C,C17*%
X69423370Y-84884663D02*
X69423370Y-85177197D01*
X70443370Y-84884663D02*
X70443370Y-85177197D01*
%TO.C,U3*%
X74863370Y-79570330D02*
X74063370Y-79570330D01*
X74863370Y-82690330D02*
X76663370Y-82690330D01*
X74863370Y-79570330D02*
X75663370Y-79570330D01*
X74863370Y-82690330D02*
X74063370Y-82690330D01*
%TO.C,U4*%
X70466770Y-79574530D02*
X71266770Y-79574530D01*
X70466770Y-79574530D02*
X69666770Y-79574530D01*
X70466770Y-82694530D02*
X72266770Y-82694530D01*
X70466770Y-82694530D02*
X69666770Y-82694530D01*
%TD*%
M02*
