%TF.GenerationSoftware,KiCad,Pcbnew,(6.0.1-0)*%
%TF.CreationDate,2022-02-13T14:14:42-05:00*%
%TF.ProjectId,usbAudio,75736241-7564-4696-9f2e-6b696361645f,rev?*%
%TF.SameCoordinates,Original*%
%TF.FileFunction,Paste,Top*%
%TF.FilePolarity,Positive*%
%FSLAX46Y46*%
G04 Gerber Fmt 4.6, Leading zero omitted, Abs format (unit mm)*
G04 Created by KiCad (PCBNEW (6.0.1-0)) date 2022-02-13 14:14:42*
%MOMM*%
%LPD*%
G01*
G04 APERTURE LIST*
G04 Aperture macros list*
%AMRoundRect*
0 Rectangle with rounded corners*
0 $1 Rounding radius*
0 $2 $3 $4 $5 $6 $7 $8 $9 X,Y pos of 4 corners*
0 Add a 4 corners polygon primitive as box body*
4,1,4,$2,$3,$4,$5,$6,$7,$8,$9,$2,$3,0*
0 Add four circle primitives for the rounded corners*
1,1,$1+$1,$2,$3*
1,1,$1+$1,$4,$5*
1,1,$1+$1,$6,$7*
1,1,$1+$1,$8,$9*
0 Add four rect primitives between the rounded corners*
20,1,$1+$1,$2,$3,$4,$5,0*
20,1,$1+$1,$4,$5,$6,$7,0*
20,1,$1+$1,$6,$7,$8,$9,0*
20,1,$1+$1,$8,$9,$2,$3,0*%
G04 Aperture macros list end*
%ADD10RoundRect,0.237500X0.300000X0.237500X-0.300000X0.237500X-0.300000X-0.237500X0.300000X-0.237500X0*%
%ADD11RoundRect,0.237500X-0.237500X0.300000X-0.237500X-0.300000X0.237500X-0.300000X0.237500X0.300000X0*%
%ADD12RoundRect,0.237500X-0.250000X-0.237500X0.250000X-0.237500X0.250000X0.237500X-0.250000X0.237500X0*%
%ADD13R,0.431800X1.651000*%
%ADD14R,1.600000X1.300000*%
%ADD15RoundRect,0.237500X-0.300000X-0.237500X0.300000X-0.237500X0.300000X0.237500X-0.300000X0.237500X0*%
%ADD16RoundRect,0.237500X0.237500X-0.300000X0.237500X0.300000X-0.237500X0.300000X-0.237500X-0.300000X0*%
%ADD17RoundRect,0.250000X0.650000X-0.412500X0.650000X0.412500X-0.650000X0.412500X-0.650000X-0.412500X0*%
%ADD18R,0.711200X0.203200*%
%ADD19R,1.701800X2.387600*%
%ADD20RoundRect,0.237500X-0.237500X0.250000X-0.237500X-0.250000X0.237500X-0.250000X0.237500X0.250000X0*%
%ADD21RoundRect,0.250000X-0.650000X0.412500X-0.650000X-0.412500X0.650000X-0.412500X0.650000X0.412500X0*%
%ADD22R,1.346200X0.457200*%
%ADD23R,1.651000X1.498600*%
%ADD24R,1.500000X2.000000*%
%ADD25RoundRect,0.150000X0.512500X0.150000X-0.512500X0.150000X-0.512500X-0.150000X0.512500X-0.150000X0*%
G04 APERTURE END LIST*
D10*
%TO.C,C6*%
X66318300Y-77038200D03*
X64593300Y-77038200D03*
%TD*%
D11*
%TO.C,C15*%
X79375000Y-84456100D03*
X79375000Y-86181100D03*
%TD*%
D12*
%TO.C,R4*%
X90145700Y-74129900D03*
X91970700Y-74129900D03*
%TD*%
%TO.C,R5*%
X90145700Y-75653900D03*
X91970700Y-75653900D03*
%TD*%
%TO.C,R9*%
X90144600Y-79325300D03*
X91969600Y-79325300D03*
%TD*%
%TO.C,R10*%
X86387300Y-85674200D03*
X88212300Y-85674200D03*
%TD*%
D13*
%TO.C,U1*%
X87518001Y-74345800D03*
X86868000Y-74345800D03*
X86218001Y-74345800D03*
X85568000Y-74345800D03*
X84918002Y-74345800D03*
X84268000Y-74345800D03*
X83618002Y-74345800D03*
X82968003Y-74345800D03*
X82318002Y-74345800D03*
X81668003Y-74345800D03*
X81018002Y-74345800D03*
X80368003Y-74345800D03*
X79718002Y-74345800D03*
X79068003Y-74345800D03*
X79068001Y-81610200D03*
X79718002Y-81610200D03*
X80368001Y-81610200D03*
X81018002Y-81610200D03*
X81668000Y-81610200D03*
X82318002Y-81610200D03*
X82968000Y-81610200D03*
X83618002Y-81610200D03*
X84268000Y-81610200D03*
X84918002Y-81610200D03*
X85568000Y-81610200D03*
X86218001Y-81610200D03*
X86868000Y-81610200D03*
X87518001Y-81610200D03*
%TD*%
D14*
%TO.C,Y1*%
X84631800Y-84013800D03*
X81331800Y-84013800D03*
X81331800Y-86013800D03*
X84631800Y-86013800D03*
%TD*%
D15*
%TO.C,C14*%
X86437300Y-84302600D03*
X88162300Y-84302600D03*
%TD*%
D10*
%TO.C,C9*%
X91900000Y-82473800D03*
X90175000Y-82473800D03*
%TD*%
D15*
%TO.C,C12*%
X90197600Y-80900100D03*
X91922600Y-80900100D03*
%TD*%
D16*
%TO.C,C10*%
X76233370Y-85892830D03*
X76233370Y-84167830D03*
%TD*%
%TO.C,C11*%
X74683370Y-85880330D03*
X74683370Y-84155330D03*
%TD*%
D17*
%TO.C,C3*%
X74574400Y-78829300D03*
X74574400Y-75704300D03*
%TD*%
D12*
%TO.C,R6*%
X90171900Y-77647800D03*
X91996900Y-77647800D03*
%TD*%
D18*
%TO.C,U2*%
X67005800Y-76082000D03*
X67005800Y-75682001D03*
X67005800Y-75281999D03*
X67005800Y-74882000D03*
X67005800Y-74482001D03*
X67005800Y-74081999D03*
X67005800Y-73682000D03*
X64008600Y-73682000D03*
X64008600Y-74081999D03*
X64008600Y-74482001D03*
X64008600Y-74882000D03*
X64008600Y-75281999D03*
X64008600Y-75682001D03*
X64008600Y-76082000D03*
D19*
X65507200Y-74882000D03*
%TD*%
D12*
%TO.C,R7*%
X60717500Y-78659400D03*
X62542500Y-78659400D03*
%TD*%
D20*
%TO.C,R1*%
X68358570Y-84143830D03*
X68358570Y-85968830D03*
%TD*%
D12*
%TO.C,R8*%
X60717500Y-77110000D03*
X62542500Y-77110000D03*
%TD*%
D10*
%TO.C,C4*%
X62482900Y-75387200D03*
X60757900Y-75387200D03*
%TD*%
%TO.C,C2*%
X62482900Y-73863200D03*
X60757900Y-73863200D03*
%TD*%
D21*
%TO.C,C5*%
X76958400Y-75702700D03*
X76958400Y-78827700D03*
%TD*%
D22*
%TO.C,J1*%
X94462600Y-78968600D03*
X94462600Y-78318599D03*
X94462600Y-77668600D03*
X94462600Y-77018601D03*
X94462600Y-76368600D03*
D23*
X97137601Y-78668601D03*
X97137601Y-76668599D03*
%TD*%
D11*
%TO.C,C7*%
X68757800Y-76886900D03*
X68757800Y-78611900D03*
%TD*%
D24*
%TO.C,J3*%
X57400000Y-85923000D03*
X57400000Y-78923000D03*
X60800000Y-85923000D03*
X64600000Y-78923000D03*
X66800000Y-78923000D03*
X66300000Y-85923000D03*
%TD*%
D11*
%TO.C,C16*%
X71508170Y-84168430D03*
X71508170Y-85893430D03*
%TD*%
D16*
%TO.C,C1*%
X72085200Y-76756600D03*
X72085200Y-75031600D03*
%TD*%
D11*
%TO.C,C13*%
X73057570Y-84168430D03*
X73057570Y-85893430D03*
%TD*%
%TO.C,C8*%
X70307200Y-76885800D03*
X70307200Y-78610800D03*
%TD*%
%TO.C,C17*%
X69933370Y-84168430D03*
X69933370Y-85893430D03*
%TD*%
D25*
%TO.C,U3*%
X76000870Y-82080330D03*
X76000870Y-81130330D03*
X76000870Y-80180330D03*
X73725870Y-80180330D03*
X73725870Y-82080330D03*
%TD*%
%TO.C,U4*%
X71604270Y-82084530D03*
X71604270Y-81134530D03*
X71604270Y-80184530D03*
X69329270Y-80184530D03*
X69329270Y-82084530D03*
%TD*%
M02*
