%TF.GenerationSoftware,KiCad,Pcbnew,(6.0.1-0)*%
%TF.CreationDate,2022-02-13T14:35:08-05:00*%
%TF.ProjectId,usbAudio,75736241-7564-4696-9f2e-6b696361645f,rev?*%
%TF.SameCoordinates,Original*%
%TF.FileFunction,Copper,L2,Bot*%
%TF.FilePolarity,Positive*%
%FSLAX46Y46*%
G04 Gerber Fmt 4.6, Leading zero omitted, Abs format (unit mm)*
G04 Created by KiCad (PCBNEW (6.0.1-0)) date 2022-02-13 14:35:08*
%MOMM*%
%LPD*%
G01*
G04 APERTURE LIST*
G04 Aperture macros list*
%AMRoundRect*
0 Rectangle with rounded corners*
0 $1 Rounding radius*
0 $2 $3 $4 $5 $6 $7 $8 $9 X,Y pos of 4 corners*
0 Add a 4 corners polygon primitive as box body*
4,1,4,$2,$3,$4,$5,$6,$7,$8,$9,$2,$3,0*
0 Add four circle primitives for the rounded corners*
1,1,$1+$1,$2,$3*
1,1,$1+$1,$4,$5*
1,1,$1+$1,$6,$7*
1,1,$1+$1,$8,$9*
0 Add four rect primitives between the rounded corners*
20,1,$1+$1,$2,$3,$4,$5,0*
20,1,$1+$1,$4,$5,$6,$7,0*
20,1,$1+$1,$6,$7,$8,$9,0*
20,1,$1+$1,$8,$9,$2,$3,0*%
G04 Aperture macros list end*
%TA.AperFunction,ComponentPad*%
%ADD10O,1.651000X1.016000*%
%TD*%
%TA.AperFunction,ComponentPad*%
%ADD11O,1.016000X1.295400*%
%TD*%
%TA.AperFunction,ComponentPad*%
%ADD12RoundRect,0.249900X-0.275100X-0.400100X0.275100X-0.400100X0.275100X0.400100X-0.275100X0.400100X0*%
%TD*%
%TA.AperFunction,ComponentPad*%
%ADD13O,1.050000X1.300000*%
%TD*%
%TA.AperFunction,ComponentPad*%
%ADD14C,4.000000*%
%TD*%
%TA.AperFunction,ViaPad*%
%ADD15C,0.800000*%
%TD*%
%TA.AperFunction,Conductor*%
%ADD16C,0.250000*%
%TD*%
%TA.AperFunction,Conductor*%
%ADD17C,0.203200*%
%TD*%
G04 APERTURE END LIST*
D10*
%TO.P,J1,S_1*%
%TO.N,N/C*%
X97137601Y-81168600D03*
%TO.P,J1,S_2*%
X97137601Y-74168599D03*
D11*
%TO.P,J1,S_3*%
X94462600Y-80168600D03*
%TO.P,J1,S_4*%
X94462600Y-75168600D03*
%TD*%
D12*
%TO.P,J2,1,Pin_1*%
%TO.N,VCC*%
X74130000Y-74028400D03*
D13*
%TO.P,J2,2,Pin_2*%
%TO.N,GND*%
X75400000Y-74028400D03*
%TO.P,J2,3,Pin_3*%
%TO.N,/IN_R*%
X76670000Y-74028400D03*
%TD*%
D14*
%TO.P,REF\u002A\u002A,*%
%TO.N,GND*%
X94400000Y-84150000D03*
%TD*%
D15*
%TO.N,GND*%
X79250000Y-77650000D03*
X90728800Y-85826600D03*
X58826400Y-80645000D03*
X85598000Y-76390500D03*
X77520800Y-85369400D03*
X72263000Y-78359000D03*
X62560200Y-80645000D03*
X63347600Y-85928200D03*
X93395800Y-73914000D03*
X58100000Y-73600000D03*
X83000000Y-80000000D03*
X67665600Y-81508600D03*
%TO.N,VBUS*%
X77470000Y-81000600D03*
X93246199Y-79527400D03*
%TO.N,Net-(JP1-Pad2)*%
X70866000Y-75717400D03*
X59461400Y-74295000D03*
%TD*%
D16*
%TO.N,VBUS*%
X79502000Y-78994000D02*
X77470000Y-81026000D01*
X93238800Y-79446600D02*
X93246199Y-79446600D01*
X92786200Y-78994000D02*
X79502000Y-78994000D01*
X92786200Y-78994000D02*
X93238800Y-79446600D01*
D17*
%TO.N,Net-(JP1-Pad2)*%
X60920000Y-75740000D02*
X71097400Y-75740000D01*
X59460000Y-74280000D02*
X60920000Y-75740000D01*
%TD*%
%TA.AperFunction,Conductor*%
%TO.N,GND*%
G36*
X77200133Y-73100801D02*
G01*
X98463900Y-73103047D01*
X98472173Y-73106475D01*
X98475599Y-73114746D01*
X98475317Y-79719879D01*
X98475001Y-87136100D01*
X98471574Y-87144374D01*
X98463301Y-87147800D01*
X55916701Y-87147800D01*
X55908428Y-87144373D01*
X55905001Y-87136100D01*
X55905007Y-87012048D01*
X55905043Y-86153591D01*
X58269922Y-86153591D01*
X58279321Y-86332921D01*
X58327008Y-86506049D01*
X58327301Y-86506604D01*
X58327301Y-86506605D01*
X58409222Y-86661980D01*
X58410760Y-86664898D01*
X58526668Y-86802058D01*
X58669326Y-86911128D01*
X58719353Y-86934456D01*
X58831501Y-86986752D01*
X58831506Y-86986754D01*
X58832077Y-86987020D01*
X58936302Y-87010317D01*
X59006853Y-87026087D01*
X59006855Y-87026087D01*
X59007328Y-87026193D01*
X59012819Y-87026500D01*
X59144866Y-87026500D01*
X59145167Y-87026467D01*
X59145173Y-87026467D01*
X59213445Y-87019050D01*
X59278525Y-87011980D01*
X59279124Y-87011778D01*
X59279126Y-87011778D01*
X59363623Y-86983342D01*
X59448722Y-86954703D01*
X59520800Y-86911394D01*
X59602108Y-86862539D01*
X59602111Y-86862536D01*
X59602648Y-86862214D01*
X59733123Y-86738830D01*
X59834060Y-86590306D01*
X59889548Y-86451575D01*
X59900511Y-86424167D01*
X59900512Y-86424162D01*
X59900748Y-86423573D01*
X59930078Y-86246409D01*
X59920679Y-86067079D01*
X59872992Y-85893951D01*
X59828568Y-85809694D01*
X59825350Y-85803591D01*
X96219922Y-85803591D01*
X96229321Y-85982921D01*
X96277008Y-86156049D01*
X96277301Y-86156604D01*
X96277301Y-86156605D01*
X96324980Y-86247035D01*
X96360760Y-86314898D01*
X96476668Y-86452058D01*
X96619326Y-86561128D01*
X96669353Y-86584456D01*
X96781501Y-86636752D01*
X96781506Y-86636754D01*
X96782077Y-86637020D01*
X96886302Y-86660317D01*
X96956853Y-86676087D01*
X96956855Y-86676087D01*
X96957328Y-86676193D01*
X96962819Y-86676500D01*
X97094866Y-86676500D01*
X97095167Y-86676467D01*
X97095173Y-86676467D01*
X97163445Y-86669050D01*
X97228525Y-86661980D01*
X97229124Y-86661778D01*
X97229126Y-86661778D01*
X97313624Y-86633341D01*
X97398722Y-86604703D01*
X97421809Y-86590831D01*
X97552108Y-86512539D01*
X97552111Y-86512536D01*
X97552648Y-86512214D01*
X97647049Y-86422944D01*
X97682662Y-86389266D01*
X97683123Y-86388830D01*
X97784060Y-86240306D01*
X97818994Y-86152965D01*
X97850511Y-86074167D01*
X97850512Y-86074162D01*
X97850748Y-86073573D01*
X97880078Y-85896409D01*
X97870679Y-85717079D01*
X97822992Y-85543951D01*
X97778568Y-85459694D01*
X97739534Y-85385659D01*
X97739533Y-85385657D01*
X97739240Y-85385102D01*
X97623332Y-85247942D01*
X97480674Y-85138872D01*
X97430647Y-85115544D01*
X97318499Y-85063248D01*
X97318494Y-85063246D01*
X97317923Y-85062980D01*
X97206258Y-85038020D01*
X97143147Y-85023913D01*
X97143145Y-85023913D01*
X97142672Y-85023807D01*
X97137181Y-85023500D01*
X97005134Y-85023500D01*
X97004833Y-85023533D01*
X97004827Y-85023533D01*
X96936555Y-85030950D01*
X96871475Y-85038020D01*
X96870876Y-85038222D01*
X96870874Y-85038222D01*
X96797720Y-85062841D01*
X96701278Y-85095297D01*
X96700737Y-85095622D01*
X96700735Y-85095623D01*
X96547892Y-85187461D01*
X96547889Y-85187464D01*
X96547352Y-85187786D01*
X96416877Y-85311170D01*
X96315940Y-85459694D01*
X96315704Y-85460285D01*
X96249489Y-85625833D01*
X96249488Y-85625838D01*
X96249252Y-85626427D01*
X96219922Y-85803591D01*
X59825350Y-85803591D01*
X59789534Y-85735659D01*
X59789533Y-85735657D01*
X59789240Y-85735102D01*
X59673332Y-85597942D01*
X59530674Y-85488872D01*
X59466976Y-85459169D01*
X59368499Y-85413248D01*
X59368494Y-85413246D01*
X59367923Y-85412980D01*
X59256258Y-85388020D01*
X59193147Y-85373913D01*
X59193145Y-85373913D01*
X59192672Y-85373807D01*
X59187181Y-85373500D01*
X59055134Y-85373500D01*
X59054833Y-85373533D01*
X59054827Y-85373533D01*
X58986555Y-85380950D01*
X58921475Y-85388020D01*
X58920876Y-85388222D01*
X58920874Y-85388222D01*
X58847720Y-85412841D01*
X58751278Y-85445297D01*
X58750737Y-85445622D01*
X58750735Y-85445623D01*
X58597892Y-85537461D01*
X58597889Y-85537464D01*
X58597352Y-85537786D01*
X58596895Y-85538219D01*
X58596894Y-85538219D01*
X58467338Y-85660734D01*
X58466877Y-85661170D01*
X58365940Y-85809694D01*
X58365704Y-85810285D01*
X58299489Y-85975833D01*
X58299488Y-85975838D01*
X58299252Y-85976427D01*
X58269922Y-86153591D01*
X55905043Y-86153591D01*
X55905200Y-82472126D01*
X56795541Y-82472126D01*
X56795630Y-82472714D01*
X56795630Y-82472716D01*
X56811290Y-82576260D01*
X56825935Y-82673097D01*
X56896119Y-82863852D01*
X57003226Y-83036599D01*
X57142881Y-83184280D01*
X57309379Y-83300863D01*
X57495919Y-83381586D01*
X57694880Y-83423151D01*
X57695326Y-83423174D01*
X57695331Y-83423175D01*
X57700873Y-83423465D01*
X57701539Y-83423500D01*
X57850800Y-83423500D01*
X57851094Y-83423470D01*
X57851097Y-83423470D01*
X57901272Y-83418373D01*
X58002216Y-83408120D01*
X58196172Y-83347338D01*
X58373944Y-83248797D01*
X58528271Y-83116523D01*
X58590656Y-83036097D01*
X58652484Y-82956389D01*
X58652486Y-82956385D01*
X58652848Y-82955919D01*
X58742587Y-82773545D01*
X58793822Y-82576852D01*
X58799310Y-82472126D01*
X63795541Y-82472126D01*
X63795630Y-82472714D01*
X63795630Y-82472716D01*
X63811290Y-82576260D01*
X63825935Y-82673097D01*
X63896119Y-82863852D01*
X64003226Y-83036599D01*
X64142881Y-83184280D01*
X64309379Y-83300863D01*
X64495919Y-83381586D01*
X64694880Y-83423151D01*
X64695326Y-83423174D01*
X64695331Y-83423175D01*
X64700873Y-83423465D01*
X64701539Y-83423500D01*
X64850800Y-83423500D01*
X64851094Y-83423470D01*
X64851097Y-83423470D01*
X64901272Y-83418373D01*
X65002216Y-83408120D01*
X65196172Y-83347338D01*
X65373944Y-83248797D01*
X65528271Y-83116523D01*
X65590656Y-83036097D01*
X65652484Y-82956389D01*
X65652486Y-82956385D01*
X65652848Y-82955919D01*
X65742587Y-82773545D01*
X65793822Y-82576852D01*
X65804459Y-82373874D01*
X65804370Y-82373284D01*
X65774154Y-82173489D01*
X65774153Y-82173485D01*
X65774065Y-82172903D01*
X65703881Y-81982148D01*
X65596774Y-81809401D01*
X65457119Y-81661720D01*
X65290621Y-81545137D01*
X65104081Y-81464414D01*
X64905120Y-81422849D01*
X64904674Y-81422826D01*
X64904669Y-81422825D01*
X64899033Y-81422530D01*
X64898461Y-81422500D01*
X64749200Y-81422500D01*
X64748906Y-81422530D01*
X64748903Y-81422530D01*
X64698728Y-81427627D01*
X64597784Y-81437880D01*
X64403828Y-81498662D01*
X64226056Y-81597203D01*
X64071729Y-81729477D01*
X64049453Y-81758195D01*
X63947516Y-81889611D01*
X63947514Y-81889615D01*
X63947152Y-81890081D01*
X63857413Y-82072455D01*
X63806178Y-82269148D01*
X63795541Y-82472126D01*
X58799310Y-82472126D01*
X58804459Y-82373874D01*
X58804370Y-82373284D01*
X58774154Y-82173489D01*
X58774153Y-82173485D01*
X58774065Y-82172903D01*
X58703881Y-81982148D01*
X58596774Y-81809401D01*
X58457119Y-81661720D01*
X58290621Y-81545137D01*
X58104081Y-81464414D01*
X57905120Y-81422849D01*
X57904674Y-81422826D01*
X57904669Y-81422825D01*
X57899033Y-81422530D01*
X57898461Y-81422500D01*
X57749200Y-81422500D01*
X57748906Y-81422530D01*
X57748903Y-81422530D01*
X57698728Y-81427627D01*
X57597784Y-81437880D01*
X57403828Y-81498662D01*
X57226056Y-81597203D01*
X57071729Y-81729477D01*
X57049453Y-81758195D01*
X56947516Y-81889611D01*
X56947514Y-81889615D01*
X56947152Y-81890081D01*
X56857413Y-82072455D01*
X56806178Y-82269148D01*
X56795541Y-82472126D01*
X55905200Y-82472126D01*
X55905262Y-81000600D01*
X76912329Y-81000600D01*
X76931331Y-81144936D01*
X76987043Y-81279435D01*
X77075667Y-81394933D01*
X77076273Y-81395398D01*
X77076274Y-81395399D01*
X77112048Y-81422849D01*
X77191164Y-81483557D01*
X77191873Y-81483851D01*
X77191877Y-81483853D01*
X77310891Y-81533150D01*
X77325664Y-81539269D01*
X77470000Y-81558271D01*
X77614336Y-81539269D01*
X77629109Y-81533150D01*
X77748123Y-81483853D01*
X77748127Y-81483851D01*
X77748836Y-81483557D01*
X77827952Y-81422849D01*
X77863726Y-81395399D01*
X77863727Y-81395398D01*
X77864333Y-81394933D01*
X77952957Y-81279435D01*
X77967171Y-81245120D01*
X96158759Y-81245120D01*
X96158922Y-81245797D01*
X96158922Y-81245801D01*
X96194580Y-81394324D01*
X96196102Y-81400663D01*
X96196424Y-81401287D01*
X96215280Y-81437820D01*
X96269469Y-81542809D01*
X96269931Y-81543339D01*
X96269932Y-81543340D01*
X96274941Y-81549082D01*
X96374625Y-81663352D01*
X96375204Y-81663759D01*
X96504918Y-81754924D01*
X96504922Y-81754926D01*
X96505498Y-81755331D01*
X96654535Y-81813438D01*
X96776540Y-81829500D01*
X97495213Y-81829500D01*
X97495566Y-81829457D01*
X97495571Y-81829457D01*
X97592219Y-81817761D01*
X97613906Y-81815137D01*
X97614563Y-81814889D01*
X97614566Y-81814888D01*
X97762886Y-81758842D01*
X97762887Y-81758842D01*
X97763542Y-81758594D01*
X97895372Y-81667989D01*
X97895840Y-81667463D01*
X97895843Y-81667461D01*
X98001314Y-81549082D01*
X98001784Y-81548555D01*
X98076636Y-81407185D01*
X98115605Y-81252041D01*
X98115642Y-81245120D01*
X98116439Y-81092780D01*
X98116443Y-81092080D01*
X98114951Y-81085863D01*
X98079264Y-80937219D01*
X98079263Y-80937217D01*
X98079100Y-80936537D01*
X98005733Y-80794391D01*
X98000721Y-80788645D01*
X97901042Y-80674381D01*
X97900577Y-80673848D01*
X97899998Y-80673441D01*
X97770284Y-80582276D01*
X97770280Y-80582274D01*
X97769704Y-80581869D01*
X97620667Y-80523762D01*
X97498662Y-80507700D01*
X96779989Y-80507700D01*
X96779636Y-80507743D01*
X96779631Y-80507743D01*
X96682983Y-80519439D01*
X96661296Y-80522063D01*
X96660639Y-80522311D01*
X96660636Y-80522312D01*
X96512316Y-80578358D01*
X96511660Y-80578606D01*
X96379830Y-80669211D01*
X96379362Y-80669737D01*
X96379359Y-80669739D01*
X96333553Y-80721151D01*
X96273418Y-80788645D01*
X96198566Y-80930015D01*
X96159597Y-81085159D01*
X96159593Y-81085860D01*
X96159593Y-81085863D01*
X96159557Y-81092780D01*
X96158759Y-81245120D01*
X77967171Y-81245120D01*
X78008669Y-81144936D01*
X78027671Y-81000600D01*
X78012223Y-80883260D01*
X78014541Y-80874610D01*
X78015550Y-80873460D01*
X78540598Y-80348412D01*
X93801700Y-80348412D01*
X93816063Y-80467105D01*
X93816311Y-80467762D01*
X93816312Y-80467765D01*
X93859332Y-80581612D01*
X93872606Y-80616741D01*
X93963211Y-80748571D01*
X93963737Y-80749039D01*
X93963739Y-80749042D01*
X94008189Y-80788645D01*
X94082645Y-80854983D01*
X94083270Y-80855314D01*
X94089229Y-80858469D01*
X94224015Y-80929835D01*
X94300985Y-80949168D01*
X94378477Y-80968633D01*
X94378479Y-80968633D01*
X94379159Y-80968804D01*
X94379860Y-80968808D01*
X94379863Y-80968808D01*
X94456565Y-80969210D01*
X94539120Y-80969642D01*
X94539797Y-80969479D01*
X94539801Y-80969479D01*
X94693981Y-80932463D01*
X94693983Y-80932462D01*
X94694663Y-80932299D01*
X94700073Y-80929507D01*
X94806433Y-80874610D01*
X94836809Y-80858932D01*
X94839868Y-80856264D01*
X94956819Y-80754241D01*
X94957352Y-80753776D01*
X95013152Y-80674381D01*
X95048924Y-80623483D01*
X95048926Y-80623479D01*
X95049331Y-80622903D01*
X95051734Y-80616741D01*
X95107181Y-80474525D01*
X95107438Y-80473866D01*
X95123500Y-80351861D01*
X95123500Y-79988788D01*
X95109137Y-79870095D01*
X95106848Y-79864036D01*
X95052842Y-79721115D01*
X95052842Y-79721114D01*
X95052594Y-79720459D01*
X94961989Y-79588629D01*
X94961463Y-79588161D01*
X94961461Y-79588158D01*
X94892414Y-79526640D01*
X94842555Y-79482217D01*
X94701185Y-79407365D01*
X94607471Y-79383826D01*
X94546723Y-79368567D01*
X94546721Y-79368567D01*
X94546041Y-79368396D01*
X94545340Y-79368392D01*
X94545337Y-79368392D01*
X94468635Y-79367990D01*
X94386080Y-79367558D01*
X94385403Y-79367721D01*
X94385399Y-79367721D01*
X94231219Y-79404737D01*
X94231217Y-79404738D01*
X94230537Y-79404901D01*
X94229913Y-79405223D01*
X94172615Y-79434797D01*
X94088391Y-79478268D01*
X94087861Y-79478730D01*
X94087860Y-79478731D01*
X93968381Y-79582959D01*
X93967848Y-79583424D01*
X93967441Y-79584003D01*
X93876276Y-79713717D01*
X93876274Y-79713721D01*
X93875869Y-79714297D01*
X93875612Y-79714956D01*
X93873211Y-79721115D01*
X93817762Y-79863334D01*
X93801700Y-79985339D01*
X93801700Y-80348412D01*
X78540598Y-80348412D01*
X79613683Y-79275327D01*
X79621956Y-79271900D01*
X92666244Y-79271900D01*
X92674517Y-79275327D01*
X92723888Y-79324698D01*
X92727315Y-79332971D01*
X92726424Y-79337448D01*
X92713953Y-79367558D01*
X92707530Y-79383064D01*
X92688528Y-79527400D01*
X92707530Y-79671736D01*
X92763242Y-79806235D01*
X92851866Y-79921733D01*
X92967363Y-80010357D01*
X92968072Y-80010651D01*
X92968076Y-80010653D01*
X93087090Y-80059950D01*
X93101863Y-80066069D01*
X93246199Y-80085071D01*
X93390535Y-80066069D01*
X93405308Y-80059950D01*
X93524322Y-80010653D01*
X93524326Y-80010651D01*
X93525035Y-80010357D01*
X93640532Y-79921733D01*
X93729156Y-79806235D01*
X93784868Y-79671736D01*
X93803870Y-79527400D01*
X93784868Y-79383064D01*
X93729156Y-79248565D01*
X93640532Y-79133067D01*
X93525035Y-79044443D01*
X93524326Y-79044149D01*
X93524322Y-79044147D01*
X93391247Y-78989026D01*
X93391248Y-78989026D01*
X93390535Y-78988731D01*
X93246199Y-78969729D01*
X93171276Y-78979593D01*
X93162627Y-78977275D01*
X93161476Y-78976266D01*
X93016957Y-78831747D01*
X93014719Y-78828612D01*
X93013642Y-78826409D01*
X93013168Y-78825439D01*
X92978514Y-78793293D01*
X92978198Y-78792988D01*
X92964428Y-78779218D01*
X92963985Y-78778914D01*
X92960963Y-78776840D01*
X92959626Y-78775771D01*
X92938058Y-78755765D01*
X92937269Y-78755033D01*
X92919130Y-78747796D01*
X92916847Y-78746577D01*
X92901634Y-78736141D01*
X92901630Y-78736139D01*
X92900739Y-78735528D01*
X92899689Y-78735279D01*
X92899687Y-78735278D01*
X92871070Y-78728487D01*
X92869436Y-78727970D01*
X92841878Y-78716975D01*
X92841877Y-78716975D01*
X92841113Y-78716670D01*
X92837352Y-78716301D01*
X92835587Y-78716128D01*
X92835582Y-78716128D01*
X92835299Y-78716100D01*
X92820246Y-78716100D01*
X92817544Y-78715784D01*
X92801061Y-78711872D01*
X92801060Y-78711872D01*
X92800011Y-78711623D01*
X92770106Y-78715693D01*
X92767901Y-78715993D01*
X92766323Y-78716100D01*
X79550441Y-78716100D01*
X79546642Y-78715466D01*
X79544320Y-78714669D01*
X79544319Y-78714669D01*
X79543300Y-78714319D01*
X79542226Y-78714359D01*
X79542224Y-78714359D01*
X79496075Y-78716092D01*
X79495636Y-78716100D01*
X79476152Y-78716100D01*
X79475629Y-78716197D01*
X79475623Y-78716198D01*
X79472022Y-78716869D01*
X79470319Y-78717059D01*
X79440928Y-78718162D01*
X79440926Y-78718163D01*
X79439847Y-78718203D01*
X79421898Y-78725914D01*
X79419428Y-78726664D01*
X79400224Y-78730241D01*
X79399304Y-78730808D01*
X79374265Y-78746242D01*
X79372744Y-78747032D01*
X79345483Y-78758744D01*
X79344727Y-78759069D01*
X79340213Y-78762777D01*
X79329568Y-78773422D01*
X79327433Y-78775109D01*
X79312095Y-78784564D01*
X79305457Y-78793293D01*
X79292479Y-78810360D01*
X79291439Y-78811551D01*
X77638760Y-80464230D01*
X77630487Y-80467657D01*
X77626012Y-80466767D01*
X77614336Y-80461931D01*
X77470000Y-80442929D01*
X77325664Y-80461931D01*
X77191165Y-80517643D01*
X77190552Y-80518114D01*
X77190551Y-80518114D01*
X77113668Y-80577108D01*
X77075667Y-80606267D01*
X76987043Y-80721765D01*
X76931331Y-80856264D01*
X76912329Y-81000600D01*
X55905262Y-81000600D01*
X55905313Y-79806849D01*
X55905559Y-74053591D01*
X55969922Y-74053591D01*
X55969955Y-74054223D01*
X55969955Y-74054225D01*
X55971939Y-74092079D01*
X55979321Y-74232921D01*
X56027008Y-74406049D01*
X56027301Y-74406604D01*
X56027301Y-74406605D01*
X56106505Y-74556827D01*
X56110760Y-74564898D01*
X56226668Y-74702058D01*
X56369326Y-74811128D01*
X56417033Y-74833374D01*
X56531501Y-74886752D01*
X56531506Y-74886754D01*
X56532077Y-74887020D01*
X56636302Y-74910317D01*
X56706853Y-74926087D01*
X56706855Y-74926087D01*
X56707328Y-74926193D01*
X56712819Y-74926500D01*
X56844866Y-74926500D01*
X56845167Y-74926467D01*
X56845173Y-74926467D01*
X56913445Y-74919050D01*
X56978525Y-74911980D01*
X56979124Y-74911778D01*
X56979126Y-74911778D01*
X57125033Y-74862675D01*
X57148722Y-74854703D01*
X57152104Y-74852671D01*
X57302108Y-74762539D01*
X57302111Y-74762536D01*
X57302648Y-74762214D01*
X57348068Y-74719263D01*
X57432662Y-74639266D01*
X57433123Y-74638830D01*
X57456514Y-74604412D01*
X57533703Y-74490831D01*
X57534060Y-74490306D01*
X57582752Y-74368567D01*
X57600511Y-74324167D01*
X57600512Y-74324162D01*
X57600748Y-74323573D01*
X57605478Y-74295000D01*
X58903729Y-74295000D01*
X58922731Y-74439336D01*
X58978443Y-74573835D01*
X59067067Y-74689333D01*
X59067673Y-74689798D01*
X59067674Y-74689799D01*
X59106783Y-74719808D01*
X59182564Y-74777957D01*
X59183273Y-74778251D01*
X59183277Y-74778253D01*
X59283113Y-74819606D01*
X59317064Y-74833669D01*
X59461400Y-74852671D01*
X59605736Y-74833669D01*
X59632467Y-74822597D01*
X59641421Y-74822598D01*
X59645216Y-74825134D01*
X60721502Y-75901419D01*
X60722957Y-75903192D01*
X60736516Y-75923484D01*
X60757766Y-75937683D01*
X60757767Y-75937684D01*
X60820699Y-75979734D01*
X60821828Y-75979959D01*
X60821829Y-75979959D01*
X60918869Y-75999261D01*
X60920000Y-75999486D01*
X60921131Y-75999261D01*
X60943936Y-75994725D01*
X60946218Y-75994500D01*
X70375942Y-75994500D01*
X70384215Y-75997927D01*
X70385224Y-75999078D01*
X70438775Y-76068866D01*
X70471667Y-76111733D01*
X70587164Y-76200357D01*
X70587873Y-76200651D01*
X70587877Y-76200653D01*
X70706891Y-76249950D01*
X70721664Y-76256069D01*
X70866000Y-76275071D01*
X71010336Y-76256069D01*
X71025109Y-76249950D01*
X71144123Y-76200653D01*
X71144127Y-76200651D01*
X71144836Y-76200357D01*
X71260333Y-76111733D01*
X71321182Y-76032433D01*
X71348486Y-75996849D01*
X71348486Y-75996848D01*
X71348957Y-75996235D01*
X71404669Y-75861736D01*
X71423671Y-75717400D01*
X71404669Y-75573064D01*
X71348957Y-75438565D01*
X71279781Y-75348412D01*
X93801700Y-75348412D01*
X93816063Y-75467105D01*
X93816311Y-75467762D01*
X93816312Y-75467765D01*
X93821719Y-75482073D01*
X93872606Y-75616741D01*
X93963211Y-75748571D01*
X93963737Y-75749039D01*
X93963739Y-75749042D01*
X94029208Y-75807373D01*
X94082645Y-75854983D01*
X94224015Y-75929835D01*
X94255260Y-75937683D01*
X94378477Y-75968633D01*
X94378479Y-75968633D01*
X94379159Y-75968804D01*
X94379860Y-75968808D01*
X94379863Y-75968808D01*
X94456565Y-75969210D01*
X94539120Y-75969642D01*
X94539797Y-75969479D01*
X94539801Y-75969479D01*
X94693981Y-75932463D01*
X94693983Y-75932462D01*
X94694663Y-75932299D01*
X94700073Y-75929507D01*
X94836183Y-75859255D01*
X94836182Y-75859255D01*
X94836809Y-75858932D01*
X94840957Y-75855314D01*
X94956819Y-75754241D01*
X94957352Y-75753776D01*
X94961421Y-75747987D01*
X95048924Y-75623483D01*
X95048926Y-75623479D01*
X95049331Y-75622903D01*
X95051734Y-75616741D01*
X95107181Y-75474525D01*
X95107438Y-75473866D01*
X95123500Y-75351861D01*
X95123500Y-74988788D01*
X95115926Y-74926193D01*
X95109222Y-74870798D01*
X95109137Y-74870095D01*
X95106848Y-74864036D01*
X95052842Y-74721115D01*
X95052842Y-74721114D01*
X95052594Y-74720459D01*
X94961989Y-74588629D01*
X94961463Y-74588161D01*
X94961461Y-74588158D01*
X94852223Y-74490831D01*
X94842555Y-74482217D01*
X94701185Y-74407365D01*
X94624215Y-74388032D01*
X94546723Y-74368567D01*
X94546721Y-74368567D01*
X94546041Y-74368396D01*
X94545340Y-74368392D01*
X94545337Y-74368392D01*
X94468635Y-74367990D01*
X94386080Y-74367558D01*
X94385403Y-74367721D01*
X94385399Y-74367721D01*
X94231219Y-74404737D01*
X94231217Y-74404738D01*
X94230537Y-74404901D01*
X94229913Y-74405223D01*
X94224914Y-74407803D01*
X94088391Y-74478268D01*
X94087861Y-74478730D01*
X94087860Y-74478731D01*
X93998337Y-74556827D01*
X93967848Y-74583424D01*
X93967441Y-74584003D01*
X93876276Y-74713717D01*
X93876274Y-74713721D01*
X93875869Y-74714297D01*
X93875612Y-74714956D01*
X93873323Y-74720826D01*
X93817762Y-74863334D01*
X93801700Y-74985339D01*
X93801700Y-75348412D01*
X71279781Y-75348412D01*
X71260333Y-75323067D01*
X71144836Y-75234443D01*
X71144127Y-75234149D01*
X71144123Y-75234147D01*
X71011048Y-75179026D01*
X71011049Y-75179026D01*
X71010336Y-75178731D01*
X70866000Y-75159729D01*
X70721664Y-75178731D01*
X70587165Y-75234443D01*
X70471667Y-75323067D01*
X70383043Y-75438565D01*
X70370948Y-75467765D01*
X70366594Y-75478277D01*
X70360262Y-75484609D01*
X70355785Y-75485500D01*
X61030263Y-75485500D01*
X61021990Y-75482073D01*
X60000119Y-74460202D01*
X73452100Y-74460202D01*
X73467039Y-74554524D01*
X73524966Y-74668211D01*
X73615189Y-74758434D01*
X73728876Y-74816361D01*
X73784267Y-74825134D01*
X73820660Y-74830898D01*
X73823198Y-74831300D01*
X74436802Y-74831300D01*
X74439341Y-74830898D01*
X74475733Y-74825134D01*
X74531124Y-74816361D01*
X74644811Y-74758434D01*
X74735034Y-74668211D01*
X74792961Y-74554524D01*
X74807900Y-74460202D01*
X74807900Y-74190046D01*
X74835000Y-74190046D01*
X74835050Y-74190808D01*
X74849443Y-74300133D01*
X74849838Y-74301607D01*
X74906178Y-74437624D01*
X74906943Y-74438948D01*
X74996573Y-74555756D01*
X74997644Y-74556827D01*
X75114451Y-74646457D01*
X75115775Y-74647222D01*
X75251793Y-74703562D01*
X75253267Y-74703957D01*
X75384894Y-74721286D01*
X75386612Y-74720826D01*
X75387200Y-74719808D01*
X75387200Y-74719263D01*
X75412800Y-74719263D01*
X75413482Y-74720908D01*
X75414566Y-74721358D01*
X75546733Y-74703957D01*
X75548207Y-74703562D01*
X75684224Y-74647222D01*
X75685548Y-74646457D01*
X75802356Y-74556827D01*
X75803427Y-74555756D01*
X75893057Y-74438948D01*
X75893822Y-74437624D01*
X75950162Y-74301607D01*
X75950557Y-74300133D01*
X75964458Y-74194544D01*
X75992100Y-74194544D01*
X75992143Y-74194897D01*
X75992143Y-74194902D01*
X75998220Y-74245119D01*
X76006833Y-74316289D01*
X76007081Y-74316946D01*
X76007082Y-74316949D01*
X76064582Y-74469119D01*
X76064830Y-74469775D01*
X76157765Y-74604996D01*
X76158291Y-74605464D01*
X76158293Y-74605467D01*
X76204300Y-74646457D01*
X76280272Y-74714146D01*
X76425278Y-74790922D01*
X76504197Y-74810745D01*
X76583731Y-74830723D01*
X76583733Y-74830723D01*
X76584413Y-74830894D01*
X76585114Y-74830898D01*
X76585117Y-74830898D01*
X76663830Y-74831310D01*
X76748488Y-74831753D01*
X76749165Y-74831590D01*
X76749169Y-74831590D01*
X76907351Y-74793614D01*
X76907353Y-74793613D01*
X76908033Y-74793450D01*
X76913567Y-74790594D01*
X77047848Y-74721286D01*
X77053835Y-74718196D01*
X77058305Y-74714297D01*
X77176945Y-74610800D01*
X77177478Y-74610335D01*
X77192733Y-74588629D01*
X77271417Y-74476675D01*
X77271419Y-74476671D01*
X77271824Y-74476095D01*
X77331425Y-74323225D01*
X77341708Y-74245119D01*
X96158759Y-74245119D01*
X96158922Y-74245796D01*
X96158922Y-74245800D01*
X96195938Y-74399980D01*
X96196102Y-74400662D01*
X96196424Y-74401286D01*
X96215670Y-74438574D01*
X96269469Y-74542808D01*
X96269931Y-74543338D01*
X96269932Y-74543339D01*
X96323209Y-74604412D01*
X96374625Y-74663351D01*
X96375204Y-74663758D01*
X96504918Y-74754923D01*
X96504922Y-74754925D01*
X96505498Y-74755330D01*
X96506157Y-74755587D01*
X96523988Y-74762539D01*
X96654535Y-74813437D01*
X96776540Y-74829499D01*
X97495213Y-74829499D01*
X97495566Y-74829456D01*
X97495571Y-74829456D01*
X97607237Y-74815943D01*
X97613906Y-74815136D01*
X97614563Y-74814888D01*
X97614566Y-74814887D01*
X97762886Y-74758841D01*
X97762887Y-74758841D01*
X97763542Y-74758593D01*
X97895372Y-74667988D01*
X97895840Y-74667462D01*
X97895843Y-74667460D01*
X97979896Y-74573120D01*
X98001784Y-74548554D01*
X98076636Y-74407184D01*
X98103525Y-74300133D01*
X98115434Y-74252722D01*
X98115434Y-74252720D01*
X98115605Y-74252040D01*
X98115642Y-74245119D01*
X98116439Y-74092779D01*
X98116443Y-74092079D01*
X98114951Y-74085862D01*
X98079264Y-73937218D01*
X98079263Y-73937216D01*
X98079100Y-73936536D01*
X98060902Y-73901277D01*
X98006056Y-73795016D01*
X98005733Y-73794390D01*
X98000721Y-73788644D01*
X97901042Y-73674380D01*
X97900577Y-73673847D01*
X97899998Y-73673440D01*
X97770284Y-73582275D01*
X97770280Y-73582273D01*
X97769704Y-73581868D01*
X97765234Y-73580125D01*
X97621326Y-73524018D01*
X97621327Y-73524018D01*
X97620667Y-73523761D01*
X97498662Y-73507699D01*
X96779989Y-73507699D01*
X96779636Y-73507742D01*
X96779631Y-73507742D01*
X96682983Y-73519438D01*
X96661296Y-73522062D01*
X96660639Y-73522310D01*
X96660636Y-73522311D01*
X96512316Y-73578357D01*
X96511660Y-73578605D01*
X96379830Y-73669210D01*
X96379362Y-73669736D01*
X96379359Y-73669738D01*
X96344228Y-73709169D01*
X96273418Y-73788644D01*
X96273087Y-73789269D01*
X96261029Y-73812043D01*
X96198566Y-73930014D01*
X96159597Y-74085158D01*
X96159593Y-74085859D01*
X96159593Y-74085862D01*
X96159557Y-74092779D01*
X96158759Y-74245119D01*
X77341708Y-74245119D01*
X77347900Y-74198088D01*
X77347900Y-73862256D01*
X77347518Y-73859095D01*
X77333252Y-73741214D01*
X77333167Y-73740511D01*
X77332003Y-73737429D01*
X77275418Y-73587681D01*
X77275418Y-73587680D01*
X77275170Y-73587025D01*
X77182235Y-73451804D01*
X77181709Y-73451336D01*
X77181707Y-73451333D01*
X77111284Y-73388589D01*
X77059728Y-73342654D01*
X76914722Y-73265878D01*
X76835770Y-73246047D01*
X76756269Y-73226077D01*
X76756267Y-73226077D01*
X76755587Y-73225906D01*
X76754886Y-73225902D01*
X76754883Y-73225902D01*
X76676170Y-73225490D01*
X76591512Y-73225047D01*
X76590835Y-73225210D01*
X76590831Y-73225210D01*
X76432649Y-73263186D01*
X76432647Y-73263187D01*
X76431967Y-73263350D01*
X76431343Y-73263672D01*
X76384301Y-73287952D01*
X76286165Y-73338604D01*
X76285635Y-73339066D01*
X76285634Y-73339067D01*
X76163055Y-73446000D01*
X76162522Y-73446465D01*
X76162115Y-73447044D01*
X76068583Y-73580125D01*
X76068581Y-73580129D01*
X76068176Y-73580705D01*
X76067919Y-73581364D01*
X76038376Y-73657140D01*
X76008575Y-73733575D01*
X75992100Y-73858712D01*
X75992100Y-74194544D01*
X75964458Y-74194544D01*
X75964950Y-74190808D01*
X75965000Y-74190046D01*
X75965000Y-73866754D01*
X75964950Y-73865992D01*
X75950557Y-73756667D01*
X75950162Y-73755193D01*
X75893822Y-73619176D01*
X75893057Y-73617852D01*
X75803427Y-73501044D01*
X75802356Y-73499973D01*
X75685549Y-73410343D01*
X75684225Y-73409578D01*
X75548207Y-73353238D01*
X75546733Y-73352843D01*
X75415106Y-73335514D01*
X75413388Y-73335974D01*
X75412800Y-73336992D01*
X75412800Y-74719263D01*
X75387200Y-74719263D01*
X75387200Y-73337537D01*
X75386518Y-73335892D01*
X75385434Y-73335442D01*
X75253267Y-73352843D01*
X75251793Y-73353238D01*
X75115776Y-73409578D01*
X75114452Y-73410343D01*
X74997644Y-73499973D01*
X74996573Y-73501044D01*
X74906943Y-73617852D01*
X74906178Y-73619176D01*
X74849838Y-73755193D01*
X74849443Y-73756667D01*
X74835050Y-73865992D01*
X74835000Y-73866754D01*
X74835000Y-74190046D01*
X74807900Y-74190046D01*
X74807900Y-73596598D01*
X74805632Y-73582275D01*
X74802220Y-73560734D01*
X74792961Y-73502276D01*
X74735034Y-73388589D01*
X74644811Y-73298366D01*
X74531124Y-73240439D01*
X74440445Y-73226077D01*
X74437257Y-73225572D01*
X74437256Y-73225572D01*
X74436802Y-73225500D01*
X73823198Y-73225500D01*
X73822744Y-73225572D01*
X73822743Y-73225572D01*
X73819555Y-73226077D01*
X73728876Y-73240439D01*
X73615189Y-73298366D01*
X73524966Y-73388589D01*
X73467039Y-73502276D01*
X73457780Y-73560734D01*
X73454369Y-73582275D01*
X73452100Y-73596598D01*
X73452100Y-74460202D01*
X60000119Y-74460202D01*
X59999500Y-74459583D01*
X59996073Y-74451310D01*
X59996964Y-74446833D01*
X59999775Y-74440048D01*
X59999777Y-74440042D01*
X60000069Y-74439336D01*
X60019071Y-74295000D01*
X60000069Y-74150664D01*
X59944357Y-74016165D01*
X59855733Y-73900667D01*
X59740236Y-73812043D01*
X59739527Y-73811749D01*
X59739523Y-73811747D01*
X59606448Y-73756626D01*
X59606449Y-73756626D01*
X59605736Y-73756331D01*
X59461400Y-73737329D01*
X59317064Y-73756331D01*
X59182565Y-73812043D01*
X59067067Y-73900667D01*
X58978443Y-74016165D01*
X58922731Y-74150664D01*
X58903729Y-74295000D01*
X57605478Y-74295000D01*
X57630078Y-74146409D01*
X57627231Y-74092079D01*
X57623252Y-74016165D01*
X57620679Y-73967079D01*
X57572992Y-73793951D01*
X57572699Y-73793395D01*
X57489534Y-73635659D01*
X57489533Y-73635657D01*
X57489240Y-73635102D01*
X57373332Y-73497942D01*
X57230674Y-73388872D01*
X57153410Y-73352843D01*
X57068499Y-73313248D01*
X57068494Y-73313246D01*
X57067923Y-73312980D01*
X56956258Y-73288020D01*
X56893147Y-73273913D01*
X56893145Y-73273913D01*
X56892672Y-73273807D01*
X56887181Y-73273500D01*
X56755134Y-73273500D01*
X56754833Y-73273533D01*
X56754827Y-73273533D01*
X56686555Y-73280950D01*
X56621475Y-73288020D01*
X56620876Y-73288222D01*
X56620874Y-73288222D01*
X56547720Y-73312841D01*
X56451278Y-73345297D01*
X56450737Y-73345622D01*
X56450735Y-73345623D01*
X56297892Y-73437461D01*
X56297889Y-73437464D01*
X56297352Y-73437786D01*
X56296895Y-73438219D01*
X56296894Y-73438219D01*
X56207969Y-73522311D01*
X56166877Y-73561170D01*
X56166521Y-73561694D01*
X56166520Y-73561695D01*
X56152534Y-73582275D01*
X56065940Y-73709694D01*
X56056108Y-73734277D01*
X55999489Y-73875833D01*
X55999488Y-73875838D01*
X55999252Y-73876427D01*
X55969922Y-74053591D01*
X55905559Y-74053591D01*
X55905599Y-73110253D01*
X55909026Y-73101979D01*
X55917299Y-73098553D01*
X77200133Y-73100801D01*
G37*
%TD.AperFunction*%
%TD*%
M02*
