M48
; DRILL file {KiCad (6.0.1-0)} date Sunday, February 13, 2022 at 02:35:08 PM
; FORMAT={-:-/ absolute / inch / decimal}
; #@! TF.CreationDate,2022-02-13T14:35:08-05:00
; #@! TF.GenerationSoftware,Kicad,Pcbnew,(6.0.1-0)
; #@! TF.FileFunction,Plated,1,2,PTH
FMAT,2
INCH
; #@! TA.AperFunction,Plated,PTH,ViaDrill
T1C0.0157
; #@! TA.AperFunction,Plated,PTH,ComponentDrill
T2C0.0197
; #@! TA.AperFunction,Plated,PTH,ComponentDrill
T3C0.0217
; #@! TA.AperFunction,Plated,PTH,ComponentDrill
T4C0.0295
; #@! TA.AperFunction,Plated,PTH,ComponentDrill
T5C0.0984
%
G90
G05
T1
X2.2874Y-2.8976
X2.316Y-3.175
X2.341Y-2.925
X2.463Y-3.175
X2.494Y-3.383
X2.664Y-3.209
X2.79Y-2.981
X2.845Y-3.085
X3.05Y-3.189
X3.052Y-3.361
X3.1201Y-3.0571
X3.2677Y-3.1496
X3.37Y-3.0075
X3.572Y-3.379
X3.6711Y-3.131
X3.677Y-2.91
T4
X2.9185Y-2.9145
X2.9685Y-2.9145
X3.0185Y-2.9145
T5
X3.7165Y-3.313
T2
G00X3.8371Y-2.92
M15
G01X3.8115Y-2.92
M16
G05
G00X3.8371Y-3.1956
M15
G01X3.8115Y-3.1956
M16
G05
T3
G00X3.719Y-2.9653
M15
G01X3.719Y-2.9535
M16
G05
G00X3.719Y-3.1621
M15
G01X3.719Y-3.1503
M16
G05
T0
M30
